<svg width="208" height="415" viewBox="0 0 208 415" fill="none" xmlns="http://www.w3.org/2000/svg">
<path d="M170.507 240.614H37.2208C35.0278 240.614 33.2612 239.093 33.2612 237.205V143.469C33.2612 97.6764 49.4652 53.8771 80.1064 16.687L88.452 6.66828C89.3657 5.82901 89.9749 5.25201 90.5841 4.72747C97.285 -1.0425 109.225 -1.14741 116.108 4.77992C116.656 5.19956 117.266 5.7241 117.875 6.3011L127.5 16.4772C157.836 53.3001 174.467 97.9912 174.467 142.472V237.152C174.467 239.041 172.7 240.562 170.507 240.562V240.614ZM41.1804 233.795H166.547V142.525C166.547 99.4074 150.465 56.1326 121.225 20.6211L111.905 10.7597C111.905 10.7597 111.113 10.0778 110.626 9.65817C106.483 6.09128 99.9652 6.19619 96.1274 9.55326C95.5791 10.0254 95.0309 10.445 94.6045 10.8646L86.5636 20.5687C56.897 56.5523 41.1804 99.0402 41.1804 143.364V233.69V233.795Z" fill="white" fill-opacity="0.1"/>
<path d="M203.831 259.763H170.509C168.316 259.763 166.549 258.242 166.549 256.353V198.968C166.549 197.604 167.524 196.346 168.986 195.821C170.448 195.297 172.154 195.611 173.311 196.555L206.633 225.195C207.364 225.825 207.79 226.717 207.79 227.608V256.301C207.79 258.189 206.024 259.71 203.831 259.71V259.763ZM174.469 252.944H199.871V229.077L174.469 207.204V252.944Z" fill="white" fill-opacity="0.1"/>
<path d="M148.395 307.592C148.395 307.592 148.334 307.592 148.273 307.592H59.3951C57.2021 307.592 55.4355 306.07 55.4355 304.182C55.4355 296.681 57.385 289.915 61.04 284.722L66.9489 274.021C67.619 272.814 69.0201 272.08 70.543 272.08H137.186C138.709 272.08 140.11 272.814 140.78 274.021L146.872 285.036C150.222 290.806 152.111 297.101 152.233 303.343C152.294 303.605 152.354 303.92 152.354 304.235C152.354 306.123 150.588 307.644 148.395 307.644V307.592ZM63.5376 300.773H144.131C143.643 296.419 142.12 292.065 139.745 288.026L134.689 278.899H73.0406L67.9844 287.974C65.4868 291.541 63.964 295.947 63.4766 300.773H63.5376Z" fill="white" fill-opacity="0.1"/>
<path d="M37.2204 259.753H3.95975C1.76674 259.753 0 258.232 0 256.344V227.651C0 226.759 0.426434 225.868 1.15744 225.238L34.4182 196.598C35.5757 195.602 37.2204 195.339 38.7433 195.864C40.2053 196.388 41.1799 197.647 41.1799 199.011V256.396C41.1799 258.284 39.4134 259.806 37.2204 259.806V259.753ZM7.91932 252.934H33.2608V207.194L7.91932 229.067V252.934Z" fill="white" fill-opacity="0.1"/>
<path d="M103.863 188.527C92.4101 188.527 81.5668 184.593 73.2821 177.511C56.1644 162.719 56.1644 139.587 73.2821 124.847C81.5668 117.713 92.4101 113.779 103.863 113.779C115.315 113.779 126.158 117.713 134.443 124.847C151.56 139.587 151.56 162.719 134.443 177.511C126.158 184.645 115.315 188.527 103.863 188.527ZM103.863 120.598C94.5422 120.598 85.6483 123.798 78.8865 129.673C64.9366 141.737 64.9366 160.621 78.8865 172.685C85.6483 178.508 94.5422 181.708 103.863 181.708C113.183 181.708 122.077 178.508 128.839 172.685C142.789 160.621 142.789 141.737 128.839 129.673C122.077 123.851 113.183 120.598 103.863 120.598ZM103.863 174.993C96.6134 174.993 89.7298 172.476 84.43 167.912C79.0693 163.296 76.1452 157.316 76.1452 151.074C76.1452 144.832 79.0693 138.905 84.43 134.341C89.7298 129.778 96.6134 127.26 103.863 127.26C111.112 127.26 117.995 129.778 123.295 134.341C128.595 138.905 131.519 144.832 131.58 151.074C131.58 157.316 128.656 163.296 123.295 167.86C117.995 172.423 111.112 174.941 103.863 174.941V174.993ZM103.863 134.132C98.7455 134.132 93.8111 135.915 90.0343 139.22C86.1965 142.472 84.1253 146.721 84.1253 151.127C84.1253 155.533 86.2575 159.782 90.0952 163.086C97.7099 169.643 110.137 169.643 117.752 163.086C121.589 159.782 123.721 155.533 123.721 151.127C123.721 146.721 121.589 142.472 117.812 139.22C113.975 135.915 109.101 134.132 103.984 134.132H103.863Z" fill="white" fill-opacity="0.1"/>
<path d="M162.71 278.849H44.9572C38.3782 278.849 33.2612 274.391 33.2612 268.778V237.201C33.2612 235.312 35.0278 233.791 37.2208 233.791H170.507C172.7 233.791 174.467 235.312 174.467 237.201V268.778C174.467 274.548 169.411 278.849 162.771 278.849H162.71ZM41.1804 240.61V268.778C41.1804 270.719 42.7642 272.03 44.9572 272.03H162.71C164.964 272.03 166.487 270.719 166.487 268.778V240.61H41.1194H41.1804Z" fill="white" fill-opacity="0.1"/>
<path d="M157.172 78.0549H50.5677C49.2885 78.0549 48.0701 77.5304 47.3391 76.6387C46.6081 75.7469 46.3645 74.593 46.7909 73.5963C55.0756 52.195 65.9797 33.5737 80.1125 16.7359L89.0063 6.24506C89.0063 6.24506 89.25 5.93033 89.4328 5.82542L89.92 5.40579C90.2855 5.09106 90.651 4.77634 91.0165 4.46161C98.2047 -1.67554 109.962 -1.41327 117.272 4.82879L118.977 6.29751L127.689 16.6835C142.674 35.7768 153.517 54.3456 160.949 73.5439C161.376 74.593 161.132 75.7469 160.401 76.5862C159.67 77.4779 158.452 78.0025 157.172 78.0025V78.0549ZM56.172 71.2359H151.629C144.502 54.2407 134.511 37.6127 121.17 20.6175L111.972 9.91685C107.038 5.72051 100.641 5.77297 96.6819 9.18249C96.3773 9.49722 95.9508 9.8644 95.4635 10.2316L95.2198 10.4414L86.5697 20.7224C73.8989 35.8293 63.9693 52.4048 56.172 71.2359Z" fill="white" fill-opacity="0.1"/>
<path d="M75.6623 394.669C73.4693 394.669 71.7027 393.148 71.7027 391.312L70.728 318.663C70.728 316.775 72.4336 315.254 74.6266 315.201C76.8196 315.201 78.5864 316.722 78.5864 318.558L79.6219 391.207C79.6219 393.096 77.9163 394.617 75.7233 394.669H75.6623Z" fill="white" fill-opacity="0.1"/>
<path d="M9.07648 414.971C8.77189 414.971 8.40637 414.97 8.10178 414.866C5.96969 414.393 4.69042 412.558 5.23868 410.722L35.7581 308.436C36.3064 306.6 38.4383 305.498 40.5704 305.971C42.7025 306.443 43.9818 308.279 43.4335 310.114L12.9143 412.4C12.4269 413.921 10.8431 414.971 9.07648 414.971Z" fill="white" fill-opacity="0.1"/>
<path d="M199.686 414.971C197.919 414.971 196.335 413.921 195.848 412.4L165.329 310.114C164.78 308.279 166.06 306.443 168.192 305.971C170.324 305.498 172.456 306.6 173.004 308.436L203.523 410.722C204.072 412.558 202.792 414.393 200.66 414.866C200.356 414.918 199.99 414.971 199.686 414.971Z" fill="white" fill-opacity="0.1"/>
<path d="M102.457 394.669C100.264 394.669 98.4971 393.148 98.4971 391.312L97.4614 318.663C97.4614 316.775 99.1672 315.254 101.36 315.201C103.553 315.201 105.32 316.722 105.32 318.558L106.355 391.207C106.355 393.096 104.65 394.617 102.457 394.669Z" fill="white" fill-opacity="0.1"/>
<path d="M129.199 394.669C127.006 394.669 125.239 393.148 125.239 391.312L124.204 318.663C124.204 316.775 125.909 315.254 128.102 315.201C130.295 315.201 132.062 316.722 132.062 318.558L133.097 391.207C133.097 393.096 131.392 394.617 129.199 394.669Z" fill="white" fill-opacity="0.1"/>
</svg>
