<svg width="80" height="82" viewBox="0 0 80 82" fill="none" xmlns="http://www.w3.org/2000/svg">
<path d="M77.5606 3.25781H58.5688C57.6415 3.25781 56.8578 4.04131 56.8578 4.9554V21.2783H39.5771C38.6497 21.2783 37.866 22.0618 37.866 22.9759V44.261H20.5853C19.6579 44.261 18.8742 45.0445 18.8742 45.9585V59.0169H1.71109C0.783704 59.0169 0 59.8004 0 60.7145V80.302C0 81.216 0.796766 81.9995 1.71109 81.9995H77.5606C78.488 81.9995 79.2717 81.216 79.2717 80.302V4.9554C79.1411 4.04131 78.3443 3.25781 77.5606 3.25781ZM3.29156 62.0203H18.9918V78.3432H3.29156V62.0203ZM22.2833 47.395H37.9835V78.3432H22.2833V47.395ZM41.2751 24.5429H56.9753V78.3432H41.2751V24.5429ZM75.8365 78.3432H60.1363V6.52239H75.8365V78.3432Z" fill="white"/>
<path d="M16.4483 24.46H8.88827L7.71827 28H2.25827L9.57827 6.88H15.8183L23.1083 28H17.6183L16.4483 24.46ZM15.1583 20.56L12.6683 13.06L10.1783 20.56H15.1583ZM31.055 6.94V28H25.925V6.94H31.055Z" fill="white"/>
</svg>
