<svg width="85" height="69" viewBox="0 0 85 69" fill="none" xmlns="http://www.w3.org/2000/svg">
<path d="M57.2313 17.1783C57.2445 17.0378 57.2445 16.8965 57.2313 16.756L59.0787 14.7503C59.4906 14.3106 59.7131 13.7265 59.6983 13.1242C59.6835 12.5219 59.4325 11.9495 58.9995 11.5306L57.1521 9.68316C56.7291 9.25112 56.1536 9.0022 55.5491 8.98987C54.9446 8.97753 54.3594 9.20276 53.9192 9.61718L51.9266 11.4514H51.4648C41.0534 -0.54347 22.144 -0.0552313 21.3391 0.0239426C21.0579 0.0605911 20.7959 0.186885 20.5921 0.384105C20.3882 0.581325 20.2534 0.838974 20.2074 1.11886C20.1615 1.39875 20.207 1.68598 20.3372 1.93799C20.4673 2.18999 20.6752 2.39335 20.93 2.51792C21.1148 2.51792 35.9467 8.08649 44.867 17.2971C44.6188 17.5978 44.4509 17.9564 44.3787 18.3395L2.36376 56.211C1.63753 56.8548 1.05268 57.6422 0.646125 58.5234C0.239574 59.4047 0.0201601 60.3606 0.00173743 61.3309C-0.0193295 62.291 0.15137 63.2455 0.503838 64.1387C0.856307 65.032 1.38346 65.8459 2.05442 66.5328C2.72538 67.2197 3.52667 67.7659 4.41135 68.1393C5.29603 68.5127 6.24632 68.7058 7.20656 68.7073H7.3913C8.36092 68.6849 9.31563 68.4638 10.1963 68.0575C11.077 67.6512 11.8649 67.0684 12.5112 66.3453L50.3432 24.4227C50.7344 24.3435 51.101 24.1716 51.412 23.9213C60.649 32.7492 66.1911 47.6734 66.2571 47.779C66.3503 48.0208 66.5126 48.2299 66.7238 48.3801C66.935 48.5303 67.1857 48.6149 67.4447 48.6235H67.6558C67.948 48.5705 68.2137 48.4206 68.41 48.1979C68.6064 47.9752 68.7219 47.6928 68.7379 47.3963C68.7643 46.565 69.2657 27.6556 57.2313 17.1783Z" fill="white"/>
<path d="M48.8262 42.6094C47.1384 42.6094 45.4671 42.9418 43.9077 43.5877C42.3484 44.2336 40.9315 45.1803 39.7381 46.3738C38.5446 47.5673 37.5979 48.9841 36.952 50.5435C36.3061 52.1028 35.9736 53.7741 35.9736 55.4619C35.9736 57.1498 36.3061 58.8211 36.952 60.3804C37.5979 61.9397 38.5446 63.3566 39.7381 64.5501C40.9315 65.7435 42.3484 66.6903 43.9077 67.3362C45.4671 67.9821 47.1384 68.3145 48.8262 68.3145C50.4714 68.293 52.0972 67.957 53.6162 67.3248C56.3467 66.1871 58.6011 64.1423 59.9991 61.5356C61.3972 58.9288 61.8533 55.9196 61.2905 53.0156C60.7277 50.1116 59.1804 47.4907 56.9097 45.5949C54.6391 43.6992 51.784 42.6447 48.8262 42.6094ZM53.1808 61.0173C52.3948 61.6956 51.4264 62.127 50.3965 62.2577H50.1853V63.3661C50.1871 63.5018 50.1617 63.6364 50.1106 63.7621C50.0595 63.8878 49.9838 64.002 49.8878 64.0979C49.7919 64.1938 49.6777 64.2696 49.5521 64.3207C49.4264 64.3718 49.2917 64.3972 49.1561 64.3954C49.0209 64.3954 48.8871 64.3688 48.7622 64.317C48.6373 64.2653 48.5239 64.1895 48.4283 64.0939C48.3327 63.9984 48.2569 63.8849 48.2052 63.76C48.1535 63.6351 48.1268 63.5013 48.1268 63.3661V62.416H47.8761C47.2317 62.4149 46.5881 62.3708 45.9495 62.2841C45.7047 62.2492 45.4806 62.1273 45.3182 61.9407C45.1559 61.7542 45.0661 61.5154 45.0654 61.268V49.7746C45.0665 49.5391 45.1483 49.311 45.2972 49.1285C45.446 48.946 45.653 48.8201 45.8836 48.7717C46.5455 48.6442 47.2159 48.5649 47.8893 48.5342H48.1268V47.5314C48.1268 47.3962 48.1535 47.2623 48.2052 47.1375C48.2569 47.0126 48.3327 46.8991 48.4283 46.8036C48.5239 46.708 48.6373 46.6322 48.7622 46.5804C48.8871 46.5287 49.0209 46.5021 49.1561 46.5021C49.4233 46.509 49.677 46.6209 49.8622 46.8136C50.0474 47.0062 50.1493 47.2641 50.1458 47.5314V48.5474H50.3701C51.2049 48.6533 51.9946 48.9865 52.6529 49.5107C53.0831 49.8471 53.4271 50.2811 53.6566 50.7766C53.886 51.2722 53.9943 51.8153 53.9725 52.361C53.9774 53.1946 53.6876 54.0031 53.1544 54.6438L52.996 54.8285L53.1808 55.0001C53.5797 55.3635 53.8958 55.8084 54.1076 56.3048C54.3193 56.8012 54.4218 57.3373 54.408 57.8767C54.4241 58.4604 54.3186 59.041 54.0982 59.5816C53.8779 60.1223 53.5475 60.6112 53.128 61.0173H53.1808Z" fill="white"/>
<path d="M17.2223 33.0149C19.9521 33.0149 22.57 31.9305 24.5003 30.0003C26.4305 28.07 27.5149 25.4521 27.5149 22.7223C27.5149 19.9925 26.4305 17.3746 24.5003 15.4443C22.57 13.5141 19.9521 12.4297 17.2223 12.4297C14.4925 12.4297 11.8746 13.5141 9.94432 15.4443C8.01408 17.3746 6.92969 19.9925 6.92969 22.7223C6.92969 25.4521 8.01408 28.07 9.94432 30.0003C11.8746 31.9305 14.4925 33.0149 17.2223 33.0149ZM14.0421 18.4997C14.0407 18.2635 14.1216 18.0342 14.2709 17.8511C14.4202 17.6681 14.6286 17.5428 14.8603 17.4968C15.2532 17.4241 15.6496 17.3712 16.0479 17.3385H16.2854V16.903C16.2854 16.7679 16.312 16.634 16.3638 16.5091C16.4155 16.3843 16.4913 16.2708 16.5869 16.1752C16.6824 16.0796 16.7959 16.0038 16.9208 15.9521C17.0457 15.9004 17.1795 15.8738 17.3147 15.8738C17.4492 15.8737 17.5824 15.9005 17.7066 15.9523C17.8307 16.0042 17.9433 16.0802 18.0378 16.176C18.1324 16.2718 18.2069 16.3853 18.2572 16.5101C18.3075 16.6349 18.3325 16.7685 18.3307 16.903V17.4044H18.5419C19.1017 17.5236 19.6259 17.7722 20.0726 18.1302C20.6559 18.5916 21.0409 19.2584 21.1488 19.9943C21.2567 20.7302 21.0794 21.4794 20.6532 22.0889L20.5344 22.2605L20.6664 22.4188C21.1992 22.9857 21.4882 23.7391 21.4713 24.5169C21.4759 24.9706 21.3869 25.4205 21.2098 25.8382C21.0327 26.256 20.7714 26.6327 20.442 26.9449C19.9055 27.424 19.2486 27.7479 18.5419 27.8818H18.3307V28.4228C18.3325 28.5574 18.3075 28.6909 18.2572 28.8157C18.2069 28.9405 18.1324 29.0541 18.0378 29.1498C17.9433 29.2456 17.8307 29.3216 17.7066 29.3735C17.5824 29.4254 17.4492 29.4521 17.3147 29.4521C17.0417 29.4521 16.7799 29.3436 16.5869 29.1506C16.3938 28.9576 16.2854 28.6958 16.2854 28.4228V28.0006H16.0347C15.5201 28.0006 15.1374 27.9346 14.9263 27.9082C14.6814 27.8733 14.4573 27.7514 14.2949 27.5648C14.1326 27.3783 14.0428 27.1395 14.0421 26.8921V18.4997Z" fill="white"/>
<path d="M18.4759 21.3617C18.6377 21.2961 18.7772 21.1853 18.8778 21.0426C18.9784 20.8998 19.0358 20.7312 19.0433 20.5568C19.0561 20.4272 19.0362 20.2966 18.9855 20.1767C18.9348 20.0568 18.8549 19.9516 18.753 19.8706C18.2413 19.5386 17.6305 19.394 17.0243 19.4615C16.7738 19.4476 16.5227 19.4476 16.2722 19.4615H16.0479V21.3353H18.4759V21.3617Z" fill="white"/>
<path d="M19.03 25.5302C19.1561 25.4097 19.2553 25.264 19.3213 25.1026C19.3872 24.9411 19.4184 24.7676 19.4127 24.5933C19.4073 24.3166 19.3055 24.0505 19.1248 23.8409C18.9441 23.6313 18.6959 23.4914 18.423 23.4453H16.1006V26.0844H16.7736C17.567 26.1634 18.3635 25.9677 19.03 25.5302Z" fill="white"/>
<path d="M81.4326 9.14142C80.2371 7.94666 78.7655 7.06511 77.148 6.57482C75.5306 6.08453 73.8172 6.00064 72.1595 6.33057C70.5019 6.66049 68.9512 7.39406 67.6447 8.46632C66.3383 9.53857 65.3163 10.9164 64.6694 12.4779C64.0226 14.0393 63.7707 15.7362 63.9361 17.4182C64.1015 19.1003 64.6791 20.7156 65.6177 22.1211C66.5564 23.5266 67.8271 24.679 69.3175 25.4763C70.8078 26.2735 72.4717 26.6909 74.1618 26.6916C75.5198 26.6958 76.8652 26.4312 78.1205 25.9131C79.3758 25.409 80.5126 24.6496 81.459 23.683C82.4134 22.7307 83.1705 21.5994 83.6872 20.3541C84.2038 19.1087 84.4697 17.7737 84.4697 16.4254C84.4697 15.0772 84.2038 13.7421 83.6872 12.4968C83.1705 11.2514 82.4134 10.1202 81.459 9.16781L81.4326 9.14142ZM77.3815 20.6744C76.8435 21.1488 76.1868 21.4681 75.4814 21.5981H75.2834V22.1391C75.2834 22.4121 75.175 22.6739 74.982 22.8669C74.789 23.06 74.5272 23.1684 74.2542 23.1684C73.9812 23.1684 73.7194 23.06 73.5264 22.8669C73.3334 22.6739 73.2249 22.4121 73.2249 22.1391V21.6773H72.961C72.5948 21.6824 72.2287 21.6604 71.8658 21.6113C71.622 21.5739 71.3995 21.4513 71.2376 21.2652C71.0757 21.0792 70.985 20.8418 70.9817 20.5952V12.2424C70.9833 12.0085 71.0655 11.7823 71.2146 11.6019C71.3636 11.4216 71.5703 11.2983 71.7998 11.2527C72.1918 11.1743 72.5885 11.1214 72.9874 11.0944H73.2249V10.6721C73.2249 10.3991 73.3334 10.1373 73.5264 9.94432C73.7194 9.7513 73.9812 9.64286 74.2542 9.64286C74.5272 9.64286 74.789 9.7513 74.982 9.94432C75.175 10.1373 75.2834 10.3991 75.2834 10.6721V11.1736H75.4814C76.0422 11.2825 76.5677 11.5271 77.0121 11.8861C77.3609 12.1592 77.6406 12.5105 77.8286 12.9116C78.0166 13.3128 78.1075 13.7525 78.0941 14.1954C78.1061 14.7866 77.9356 15.3671 77.6059 15.858L77.4871 16.0296L77.6191 16.1747C78.1463 16.7547 78.4299 17.5156 78.4108 18.2992C78.4068 18.7438 78.3136 19.1831 78.1368 19.5911C77.96 19.9991 77.7032 20.3674 77.3815 20.6744Z" fill="white"/>
<path d="M75.3757 17.1016H73.04V19.7407H73.713C74.5072 19.8211 75.3055 19.6354 75.9827 19.2129C76.105 19.0896 76.2017 18.9433 76.2674 18.7826C76.3331 18.6218 76.3663 18.4496 76.3653 18.276C76.3635 17.9954 76.2636 17.7244 76.0828 17.5099C75.902 17.2953 75.6518 17.1509 75.3757 17.1016Z" fill="white"/>
<path d="M75.468 15.0154C75.6298 14.9497 75.7694 14.839 75.87 14.6962C75.9706 14.5535 76.028 14.3849 76.0355 14.2104C76.0498 14.0821 76.032 13.9521 75.9836 13.8323C75.9353 13.7125 75.8578 13.6067 75.7583 13.5243C75.2468 13.1806 74.6276 13.0352 74.0165 13.1152H73.04V15.0154H75.4153H75.468Z" fill="white"/>
<path d="M51.6626 52.4387C51.6797 52.2433 51.6476 52.0468 51.5692 51.867C51.4909 51.6872 51.3687 51.5299 51.214 51.4094C50.6123 50.9801 49.8794 50.7747 49.1422 50.8288H48.8255C48.3373 50.8288 47.8359 50.8288 47.374 50.8288V53.6659H50.7653C51.0137 53.5643 51.2291 53.3958 51.3875 53.1792C51.5459 52.9625 51.6411 52.7062 51.6626 52.4387Z" fill="white"/>
<path d="M50.7133 56.0312H47.0713V60.3198H47.322H48.3777C49.5539 60.4486 50.7376 60.1539 51.7162 59.4885C51.9258 59.2878 52.0914 59.0458 52.2027 58.7778C52.314 58.5098 52.3685 58.2216 52.3627 57.9314C52.3389 57.4762 52.1636 57.0419 51.8648 56.6977C51.566 56.3534 51.1607 56.1189 50.7133 56.0312Z" fill="white"/>
</svg>
