<svg width="99" height="99" viewBox="0 0 99 99" fill="none" xmlns="http://www.w3.org/2000/svg">
<path d="M30.3389 79.8368C30.339 83.7173 31.5173 87.5064 33.718 90.7025C35.9186 93.8987 39.0378 96.3514 42.6628 97.7361C46.2879 99.1207 50.2479 99.3721 54.0189 98.4569C57.79 97.5417 61.1943 95.5031 63.7814 92.6109L61.4022 90.4824C58.9142 93.2645 55.5302 95.0871 51.8381 95.6336C48.1459 96.1801 44.3791 95.416 41.1918 93.474C38.0044 91.532 35.5981 88.5348 34.3909 85.0031C33.1836 81.4714 33.2516 77.6284 34.5831 74.1417C35.9146 70.655 38.4255 67.7448 41.6795 65.9168C44.9336 64.0888 48.7252 63.4585 52.3956 64.1354C56.0661 64.8122 59.3834 66.7534 61.7715 69.6218C64.1595 72.4902 65.4672 76.1045 65.4675 79.8368C65.4675 80.3318 65.4196 80.8204 65.3749 81.3106L63.5514 78.8788L60.9966 80.7949L65.7869 87.1819C65.9356 87.3802 66.1285 87.5412 66.3502 87.652C66.5719 87.7629 66.8164 87.8206 67.0643 87.8206C67.3122 87.8206 67.5567 87.7629 67.7784 87.652C68.0001 87.5412 68.193 87.3802 68.3417 87.1819L73.132 80.7949L70.5772 78.8788L68.5525 81.5789C68.6036 81.0009 68.661 80.4213 68.661 79.8368C68.661 74.755 66.6423 69.8813 63.0489 66.2879C59.4555 62.6945 54.5818 60.6758 49.5 60.6758C44.4182 60.6758 39.5445 62.6945 35.9511 66.2879C32.3577 69.8813 30.3389 74.755 30.3389 79.8368Z" fill="white"/>
<path d="M47.9026 80.4474L42.3986 83.1986L43.8261 86.0568L50.2131 82.8633C50.4785 82.7307 50.7017 82.5267 50.8577 82.2742C51.0137 82.0218 51.0962 81.7309 51.0961 81.4342V68.6602H47.9026V80.4474Z" fill="white"/>
<path d="M76.6439 78.2383H98.9984V81.4318H76.6439V78.2383Z" fill="white"/>
<path d="M0 78.2383H27.1448V81.4318H0V78.2383Z" fill="white"/>
<path d="M19.1621 75.0496V39.921C19.1621 39.4975 18.9939 39.0913 18.6944 38.7919C18.395 38.4924 17.9889 38.3242 17.5654 38.3242H4.79133C4.36785 38.3242 3.96171 38.4924 3.66226 38.7919C3.36281 39.0913 3.19458 39.4975 3.19458 39.921V75.0496H6.38809V41.5177H15.9686V75.0496H19.1621Z" fill="white"/>
<path d="M43.1124 22.3555H30.3384C29.9149 22.3555 29.5088 22.5237 29.2093 22.8231C28.9099 23.1226 28.7416 23.5287 28.7416 23.9522V65.4679H31.9351V25.549H41.5157V57.4841H44.7092V23.9522C44.7092 23.5287 44.541 23.1226 44.2415 22.8231C43.9421 22.5237 43.5359 22.3555 43.1124 22.3555Z" fill="white"/>
<path d="M70.2576 65.4691V39.921C70.2576 39.4975 70.0894 39.0913 69.7899 38.7919C69.4905 38.4924 69.0843 38.3242 68.6608 38.3242H55.8868C55.4633 38.3242 55.0572 38.4924 54.7577 38.7919C54.4583 39.0913 54.29 39.4975 54.29 39.921V57.4853H57.4835V41.5177H67.0641V65.4691H70.2576Z" fill="white"/>
<path d="M95.806 75.0484V23.9522C95.806 23.5287 95.6378 23.1226 95.3383 22.8231C95.0389 22.5237 94.6327 22.3555 94.2092 22.3555H81.4352C81.0117 22.3555 80.6056 22.5237 80.3061 22.8231C80.0067 23.1226 79.8384 23.5287 79.8384 23.9522V75.0484H83.0319V25.549H92.6125V75.0484H95.806Z" fill="white"/>
<path d="M87.8214 12.774C89.0846 12.774 90.3195 12.3994 91.3698 11.6976C92.4202 10.9958 93.2388 9.9983 93.7222 8.83123C94.2056 7.66415 94.3321 6.37994 94.0857 5.14098C93.8392 3.90202 93.2309 2.76396 92.3377 1.87072C91.4444 0.977477 90.3064 0.369172 89.0674 0.122728C87.8285 -0.123717 86.5442 0.00276737 85.3772 0.486186C84.2101 0.969604 83.2126 1.78824 82.5108 2.83858C81.8089 3.88892 81.4344 5.12379 81.4344 6.38702C81.4413 7.03838 81.549 7.68474 81.7537 8.30313L66.6548 17.724C65.4518 16.5728 63.8449 15.94 62.18 15.9618C60.5151 15.9836 58.9253 16.6582 57.7529 17.8405L41.244 8.12749C41.4158 7.56296 41.5072 6.97705 41.5155 6.38702C41.515 5.44355 41.3055 4.5119 40.902 3.65905C40.4985 2.8062 39.9111 2.05333 39.182 1.45455C38.4529 0.855774 37.6002 0.425964 36.6851 0.196015C35.7701 -0.0339345 34.8155 -0.0583103 33.89 0.124639C32.9644 0.307589 32.0908 0.69332 31.3321 1.25411C30.5734 1.81489 29.9483 2.5368 29.5019 3.36795C29.0554 4.1991 28.7986 5.11884 28.7499 6.06105C28.7013 7.00327 28.862 7.94457 29.2205 8.81728L13.5435 20.579C12.4232 19.6676 11.0246 19.1672 9.58039 19.1611C8.20695 19.1593 6.86936 19.5993 5.7652 20.4161C4.66103 21.2329 3.84885 22.3832 3.44861 23.697C3.04838 25.0108 3.08131 26.4186 3.54255 27.7122C4.0038 29.0059 4.86889 30.1169 6.01004 30.8812C7.1512 31.6455 8.5079 32.0224 9.87976 31.9564C11.2516 31.8905 12.5659 31.385 13.6284 30.5147C14.6909 29.6444 15.4454 28.4555 15.7803 27.1235C16.1152 25.7915 16.0129 24.3872 15.4884 23.1178L31.1717 11.3561C32.39 12.3479 33.9341 12.8501 35.5027 12.7647C37.0712 12.6794 38.5517 12.0127 39.6553 10.8947L56.1577 20.6141C55.986 21.1786 55.8946 21.7645 55.8863 22.3546C55.8863 24.0485 56.5592 25.6731 57.757 26.8709C58.9548 28.0687 60.5794 28.7416 62.2733 28.7416C63.9672 28.7416 65.5918 28.0687 66.7896 26.8709C67.9874 25.6731 68.6603 24.0485 68.6603 22.3546C68.6534 21.7032 68.5457 21.0569 68.341 20.4385L83.4399 11.0176C84.6205 12.1442 86.1895 12.7731 87.8214 12.774ZM87.8214 3.19351C88.453 3.19351 89.0704 3.38081 89.5956 3.73172C90.1208 4.08262 90.5301 4.58138 90.7718 5.16492C91.0135 5.74846 91.0767 6.39057 90.9535 7.01005C90.8303 7.62953 90.5261 8.19855 90.0795 8.64518C89.6329 9.0918 89.0639 9.39595 88.4444 9.51917C87.8249 9.64239 87.1828 9.57915 86.5993 9.33744C86.0157 9.09573 85.517 8.68641 85.1661 8.16124C84.8152 7.63607 84.6279 7.01864 84.6279 6.38702C84.6279 5.54005 84.9643 4.72777 85.5632 4.12887C86.1621 3.52997 86.9744 3.19351 87.8214 3.19351ZM9.58039 28.7416C8.94877 28.7416 8.33134 28.5543 7.80617 28.2034C7.281 27.8525 6.87168 27.3537 6.62997 26.7702C6.38826 26.1866 6.32502 25.5445 6.44824 24.9251C6.57146 24.3056 6.87562 23.7366 7.32224 23.2899C7.76886 22.8433 8.33789 22.5392 8.95737 22.4159C9.57685 22.2927 10.219 22.356 10.8025 22.5977C11.386 22.8394 11.8848 23.2487 12.2357 23.7739C12.5866 24.299 12.7739 24.9165 12.7739 25.5481C12.7739 26.3951 12.4374 27.2073 11.8385 27.8062C11.2396 28.4051 10.4274 28.7416 9.58039 28.7416ZM35.1285 9.58053C34.4968 9.58053 33.8794 9.39324 33.3542 9.04233C32.8291 8.69142 32.4198 8.19266 32.178 7.60913C31.9363 7.02559 31.8731 6.38348 31.9963 5.764C32.1195 5.14452 32.4237 4.57549 32.8703 4.12887C33.3169 3.68225 33.886 3.3781 34.5054 3.25488C35.1249 3.13165 35.767 3.1949 36.3506 3.4366C36.9341 3.67831 37.4329 4.08763 37.7838 4.6128C38.1347 5.13797 38.322 5.75541 38.322 6.38702C38.322 7.23399 37.9855 8.04628 37.3866 8.64518C36.7877 9.24407 35.9754 9.58053 35.1285 9.58053ZM62.2733 25.5481C61.6417 25.5481 61.0242 25.3608 60.4991 25.0099C59.9739 24.659 59.5646 24.1602 59.3229 23.5767C59.0812 22.9931 59.0179 22.351 59.1411 21.7315C59.2644 21.1121 59.5685 20.543 60.0151 20.0964C60.4618 19.6498 61.0308 19.3456 61.6503 19.2224C62.2698 19.0992 62.9119 19.1624 63.4954 19.4042C64.0789 19.6459 64.5777 20.0552 64.9286 20.5804C65.2795 21.1055 65.4668 21.723 65.4668 22.3546C65.4668 23.2015 65.1303 24.0138 64.5315 24.6127C63.9326 25.2116 63.1203 25.5481 62.2733 25.5481Z" fill="white"/>
</svg>
