<svg width="123" height="123" viewBox="0 0 123 123" fill="none" xmlns="http://www.w3.org/2000/svg">
<path d="M47.3788 59.9466C48.4937 60.0637 49.45 59.286 49.573 58.1988C49.696 57.1117 48.9163 56.1277 47.8272 56.0047C45.8076 55.7746 43.7384 55.6595 41.6613 55.6039V41.6613H57.4767C57.3478 46.3512 56.7843 50.8625 55.7468 55.0723C55.4829 56.1376 56.1336 57.2109 57.197 57.4727C58.2584 57.7406 59.3356 57.0859 59.5975 56.0225C60.7124 51.5033 61.3135 46.6726 61.4445 41.6593H75.282C75.034 46.2123 73.9905 50.5986 72.0661 54.7033C71.6019 55.6952 72.0264 56.8776 73.0184 57.3418C74.0143 57.806 75.1927 57.3775 75.6569 56.3896C78.111 51.1581 79.3548 45.5358 79.3548 39.6774C79.3548 17.7993 61.5556 0 39.6774 0C17.7993 0 0 17.7993 0 39.6774C0 49.2397 3.4559 58.4746 9.73089 65.6761C17.2736 74.3694 28.1888 79.3548 39.6774 79.3548C40.7745 79.3548 41.6613 78.4661 41.6613 77.371V59.5717C43.5876 59.6272 45.506 59.7344 47.3788 59.9466ZM37.6936 55.6079C33.0076 55.7309 28.5043 56.2923 24.2508 57.2803C22.8542 52.4833 22.0527 47.1665 21.896 41.6613H37.6936V55.6079ZM25.4729 61.0695C29.3454 60.1946 33.4362 59.6947 37.6936 59.5757V75.1391C32.9461 74.0083 28.4447 68.8383 25.4729 61.0695ZM11.7386 61.8333C7.14789 56.0602 4.46768 49.0215 4.05702 41.6613H17.9282C18.087 47.5018 18.9341 53.1578 20.414 58.2822C17.2438 59.2265 14.3414 60.4148 11.7386 61.8333ZM11.7306 17.5116C14.3037 18.9122 17.1883 20.1125 20.3327 21.0647C18.9083 26.0423 18.0631 31.6745 17.9064 37.6936H4.06892C4.4895 30.0914 7.27287 23.12 11.7306 17.5116ZM53.8502 18.3171C50.0213 19.1662 45.9068 19.6621 41.6613 19.7832V4.21573C46.5753 5.36042 50.9418 10.6931 53.8502 18.3171ZM37.6936 4.21573V19.7832C33.4481 19.6621 29.3335 19.1662 25.5046 18.3171C28.413 10.6931 32.7795 5.36042 37.6936 4.21573ZM37.6936 23.7489V37.6936H21.8742C22.0368 32.0812 22.874 26.7743 24.237 22.0944C28.4666 23.0645 33.0156 23.622 37.6936 23.7489ZM41.6613 23.7489C46.3393 23.622 50.8883 23.0625 55.1179 22.0944C56.4808 26.7743 57.316 32.0812 57.4807 37.6936H41.6613V23.7489ZM75.2859 37.6936H61.4464C61.2897 31.6745 60.4446 26.0423 59.0202 21.0647C62.1666 20.1105 65.0491 18.9122 67.6222 17.5116C72.082 23.12 74.8653 30.0914 75.2859 37.6936ZM64.9361 14.4604C62.7776 15.5655 60.3871 16.5177 57.8021 17.2974C56.1039 12.7027 53.872 8.85402 51.2751 5.93773C56.4669 7.72916 61.135 10.6534 64.9361 14.4604ZM28.0797 5.93971C25.4828 8.856 23.251 12.7047 21.5528 17.2994C18.9678 16.5197 16.5772 15.5655 14.4188 14.4624C18.2199 10.6534 22.8879 7.72916 28.0797 5.93971ZM14.4545 64.8627C16.6129 63.7616 19.0134 62.8332 21.6063 62.0634C23.3363 66.7216 25.5681 70.5703 28.1313 73.4489C23.0129 71.6951 18.3409 68.759 14.4545 64.8627Z" fill="white"/>
<path d="M117.048 61.5H51.5805C48.2991 61.5 45.6288 64.1703 45.6288 67.4516V107.129C45.6288 110.41 48.2991 113.081 51.5805 113.081H77.3708V119.032H69.4353C68.3382 119.032 67.4514 119.921 67.4514 121.016C67.4514 122.111 68.3382 123 69.4353 123H99.1934C100.29 123 101.177 122.111 101.177 121.016C101.177 119.921 100.29 119.032 99.1934 119.032H91.2579V113.081H117.048C120.33 113.081 123 110.41 123 107.129V67.4516C123 64.1703 120.33 61.5 117.048 61.5ZM87.2901 119.032H81.3385V113.081H87.2901V119.032ZM117.048 109.113H51.5805C50.4854 109.113 49.5966 108.222 49.5966 107.129V67.4516C49.5966 66.3585 50.4854 65.4677 51.5805 65.4677H117.048C118.143 65.4677 119.032 66.3585 119.032 67.4516V101.177H55.5482C54.4511 101.177 53.5643 102.066 53.5643 103.161C53.5643 104.256 54.4511 105.145 55.5482 105.145H119.032V107.129C119.032 108.222 118.143 109.113 117.048 109.113Z" fill="white"/>
<path d="M54.9669 84.7277L66.8701 72.8245C67.6458 72.0488 67.6458 70.795 66.8701 70.0193C66.0944 69.2436 64.8406 69.2436 64.0649 70.0193L52.1617 81.9225C51.386 82.6982 51.386 83.952 52.1617 84.7277C52.5485 85.1145 53.0564 85.309 53.5643 85.309C54.0721 85.309 54.58 85.1145 54.9669 84.7277Z" fill="white"/>
<path d="M68.0328 80.761C68.4197 81.1478 68.9275 81.3422 69.4354 81.3422C69.9433 81.3422 70.4512 81.1478 70.838 80.761L74.8058 76.7932C75.5815 76.0175 75.5815 74.7637 74.8058 73.988C74.0301 73.2123 72.7763 73.2123 72.0006 73.988L68.0328 77.9558C67.2571 78.7315 67.2571 79.9853 68.0328 80.761Z" fill="white"/>
<path d="M62.0817 83.9021L54.1462 91.8376C53.3705 92.6133 53.3705 93.8671 54.1462 94.6428C54.5331 95.0296 55.041 95.224 55.5488 95.224C56.0567 95.224 56.5646 95.0296 56.9514 94.6428L64.8869 86.7073C65.6626 85.9316 65.6626 84.6778 64.8869 83.9021C64.1112 83.1264 62.8574 83.1264 62.0817 83.9021Z" fill="white"/>
</svg>
