<svg width="90" height="141" viewBox="0 0 90 141" fill="none" xmlns="http://www.w3.org/2000/svg">
<path d="M8.63911 103.417H8.75166C9.76465 103.417 10.6932 102.882 11.1997 102.01C16.8556 92.1611 29.7431 91.7953 29.8838 91.7672H59.6263C59.767 91.7672 72.5983 92.0767 78.3104 102.01C78.8169 102.882 79.7455 103.417 80.7585 103.417H80.871C81.9121 103.388 82.8407 102.769 83.2909 101.841C83.7412 100.912 94.1806 78.9922 86.8645 64.2194C84.0788 58.5917 79.1546 54.8211 72.2606 52.9358C72.2887 52.2042 72.3169 51.5008 72.3169 50.7692C72.3169 14.1326 47.0765 0.851194 46.0072 0.31656C45.1912 -0.10552 44.2626 -0.10552 43.4466 0.31656C42.3773 0.851194 17.137 14.1326 17.137 50.7692C17.137 51.5008 17.1933 52.2042 17.1933 52.9358C10.2993 54.8211 5.37503 58.6198 2.5893 64.2194C-4.72675 78.9922 5.74083 100.912 6.16291 101.841C6.66941 102.769 7.59798 103.388 8.63911 103.417ZM81.7996 66.6956C86.1611 75.4749 82.5031 88.2498 80.0269 94.9187C75.1307 89.6286 68.6307 87.5182 64.3255 86.6741C68.4337 79.1048 71.0506 69.3125 71.9511 58.6761C76.6502 60.2237 79.8862 62.8406 81.7996 66.6956ZM44.741 6.02871C47.386 7.68889 53.5765 12.1911 58.7259 20.5201C54.7584 23.6435 49.8622 25.36 44.741 25.36C39.6198 25.36 34.7236 23.6435 30.7561 20.5201C35.9055 12.2192 42.096 7.68889 44.741 6.02871ZM28.0829 25.5288C32.8946 29.0743 38.6912 31.0158 44.741 31.0158C50.7908 31.0158 56.5874 29.0743 61.3991 25.5288C64.4662 32.057 66.6891 40.3297 66.6891 50.741C66.6891 64.4164 63.5095 77.5009 58.135 86.1394H31.347C25.9725 77.5009 22.7928 64.4164 22.7928 50.741C22.7928 40.3297 25.0158 32.057 28.0829 25.5288ZM7.68239 66.6956C9.59582 62.8406 12.8318 60.2237 17.5309 58.6761C18.4314 69.3125 21.0483 79.1048 25.1565 86.6741C20.8513 87.5182 14.3513 89.6005 9.45513 94.9187C6.95079 88.2498 3.32091 75.4749 7.68239 66.6956Z" fill="white"/>
<path d="M60.5264 124.603V102.88C60.5264 101.333 59.2601 100.066 57.7125 100.066C56.1649 100.066 54.8986 101.333 54.8986 102.88V124.603C54.8986 126.151 56.1649 127.417 57.7125 127.417C59.2601 127.417 60.5264 126.151 60.5264 124.603Z" fill="white"/>
<path d="M47.5546 137.857V116.134C47.5546 114.587 46.2884 113.32 44.7407 113.32C43.1931 113.32 41.9269 114.587 41.9269 116.134V137.857C41.9269 139.405 43.1931 140.671 44.7407 140.671C46.2884 140.671 47.5546 139.405 47.5546 137.857Z" fill="white"/>
<path d="M34.5828 124.603V102.88C34.5828 101.333 33.3166 100.066 31.769 100.066C30.2213 100.066 28.9551 101.333 28.9551 102.88V124.603C28.9551 126.151 30.2213 127.417 31.769 127.417C33.3166 127.417 34.5828 126.151 34.5828 124.603Z" fill="white"/>
<path d="M44.7414 64.3286C51.6354 64.3286 57.2631 58.7008 57.2631 51.8069C57.2631 44.9129 51.6354 39.2852 44.7414 39.2852C37.8474 39.2852 32.2197 44.9129 32.2197 51.8069C32.2197 58.7008 37.8474 64.3286 44.7414 64.3286ZM44.7414 44.9129C48.5401 44.9129 51.6354 48.0081 51.6354 51.8069C51.6354 55.6056 48.5401 58.7008 44.7414 58.7008C40.9427 58.7008 37.8474 55.6056 37.8474 51.8069C37.8474 48.0081 40.9427 44.9129 44.7414 44.9129Z" fill="white"/>
</svg>
