<svg width="536" height="536" viewBox="0 0 536 536" fill="none" xmlns="http://www.w3.org/2000/svg">
<circle cx="267.597" cy="268.597" r="243.222" stroke="#0096FF" stroke-opacity="0.5" stroke-width="3"/>
<path d="M536 268C536 214.995 520.282 163.18 490.834 119.107C461.386 75.0348 419.53 40.6846 370.559 20.4003C321.589 0.115999 267.703 -5.19129 215.716 5.14955C163.729 15.4904 115.976 41.0149 78.4954 78.4954C41.0149 115.976 15.4904 163.729 5.14957 215.716C-5.19126 267.703 0.116031 321.589 20.4003 370.559C40.6846 419.53 75.0348 461.386 119.107 490.834C163.18 520.282 214.995 536 268 536L268 527.671C216.642 527.671 166.437 512.441 123.735 483.908C81.0321 455.375 47.7494 414.82 28.0955 367.372C8.44168 319.923 3.29933 267.712 13.3188 217.341C23.3382 166.97 48.0695 120.701 84.3851 84.3851C120.701 48.0694 166.97 23.3382 217.341 13.3188C267.712 3.2993 319.923 8.44165 367.372 28.0955C414.82 47.7494 455.375 81.032 483.908 123.735C512.441 166.437 527.671 216.642 527.671 268H536Z" fill="#0096FF"/>
<circle cx="267.597" cy="268.597" r="244.722" fill="#121212" fill-opacity="0.93"/>
<circle cx="267.597" cy="268.597" r="243.222" stroke="#0096FF" stroke-opacity="0.5" stroke-width="3"/>
<path d="M536 268C536 214.995 520.282 163.18 490.834 119.107C461.386 75.0348 419.53 40.6846 370.559 20.4003C321.589 0.115999 267.703 -5.19129 215.716 5.14955C163.729 15.4904 115.976 41.0149 78.4954 78.4954C41.0149 115.976 15.4904 163.729 5.14954 215.716C-5.19129 267.703 0.116 321.589 20.4003 370.559C40.6846 419.53 75.0348 461.386 119.107 490.834C163.18 520.282 214.995 536 268 536L268 268H536Z" fill="#0096FF" fill-opacity="0.5"/>
</svg>
