<svg width="58" height="40" viewBox="0 0 58 40" fill="none" xmlns="http://www.w3.org/2000/svg">
<path d="M45.377 22.7598V16.2431H34.037L42.2404 6.91742H45.377V2.5355L56.2344 12.6476L45.377 22.7598Z" stroke="white" stroke-width="2"/>
<path d="M39.082 6.6926L31.2481 16.6074H29.0448L36.6339 6.6926H39.082Z" fill="white"/>
<path d="M34.0625 6.6926L26.2286 16.6074H24.0253L31.6144 6.6926H34.0625Z" fill="white"/>
<path d="M29.166 6.6926L21.3321 16.6074H19.1288L26.7179 6.6926H29.166Z" fill="white"/>
<path d="M12.9922 16.5879L12.9922 23.1046L24.3321 23.1046L16.1288 32.4302L12.9922 32.4302L12.9922 36.8122L2.13476 26.7L12.9922 16.5879Z" stroke="white" stroke-width="2"/>
<path d="M19.2871 32.6551L27.121 22.7402L29.3243 22.7402L21.7352 32.6551L19.2871 32.6551Z" fill="white"/>
<path d="M24.3066 32.6551L32.1406 22.7402L34.3439 22.7402L26.7547 32.6551L24.3066 32.6551Z" fill="white"/>
<path d="M29.2031 32.6551L37.0371 22.7402L39.2404 22.7402L31.6512 32.6551L29.2031 32.6551Z" fill="white"/>
</svg>
