<svg width="36" height="48" viewBox="0 0 36 48" fill="none" xmlns="http://www.w3.org/2000/svg">
<path d="M18.0166 32.2344C8.20586 32.2344 0.283203 34.3076 0.283203 36.8621V43.0448C0.283203 45.5993 8.24288 47.6725 18.0166 47.6725C27.8274 47.6725 35.7501 45.5993 35.7501 43.0448V36.8621C35.7501 34.3076 27.7904 32.2344 18.0166 32.2344ZM5.50327 33.7893C8.83523 32.9008 13.2778 32.4195 18.0166 32.4195C22.7554 32.4195 27.198 32.9008 30.53 33.7893C33.7509 34.6408 35.602 35.7515 35.602 36.8991C35.602 37.9357 34.01 39.0094 31.1964 39.8239C27.8644 40.7864 23.0516 41.3788 18.0166 41.3788C12.9817 41.3788 8.20587 40.8234 4.83688 39.8239C2.06025 39.0094 0.431288 37.9357 0.431288 36.8991C0.431288 35.7515 2.28238 34.6038 5.50327 33.7893Z" fill="white"/>
<path d="M18.0166 21.6094C8.20586 21.6094 0.283203 23.6826 0.283203 26.2371V32.4197C0.283203 34.9743 8.24288 37.0475 18.0166 37.0475C27.8274 37.0475 35.7501 34.9743 35.7501 32.4197V26.2371C35.7501 23.6826 27.7904 21.6094 18.0166 21.6094ZM5.50327 23.1273C8.83523 22.2387 13.2778 21.7575 18.0166 21.7575C22.7554 21.7575 27.198 22.2387 30.53 23.1273C33.7509 23.9788 35.602 25.0894 35.602 26.2371C35.602 27.2737 34.01 28.3474 31.1964 29.1618C27.8644 30.1244 23.0516 30.7167 18.0166 30.7167C12.9817 30.7167 8.20587 30.1614 4.83688 29.1618C2.06025 28.3474 0.431288 27.2737 0.431288 26.2371C0.431288 25.0894 2.28238 23.9788 5.50327 23.1273Z" fill="white"/>
<path d="M18.0166 10.9453C8.20586 10.9453 0.283203 13.0185 0.283203 15.573V21.7557C0.283203 24.3102 8.24288 26.3834 18.0166 26.3834C27.8274 26.3834 35.7501 24.3102 35.7501 21.7557V15.573C35.7501 13.0185 27.7904 10.9453 18.0166 10.9453ZM5.50327 12.4632C8.83523 11.5747 13.2778 11.0934 18.0166 11.0934C22.7554 11.0934 27.198 11.5747 30.53 12.4632C33.7509 13.3147 35.602 14.4254 35.602 15.573C35.602 16.6097 34.01 17.6833 31.1964 18.4978C27.8644 19.4603 23.0516 20.0527 18.0166 20.0527C12.9817 20.0527 8.20587 19.4974 4.83688 18.4978C2.06025 17.6833 0.431288 16.6097 0.431288 15.573C0.431288 14.4624 2.28238 13.3147 5.50327 12.4632Z" fill="white"/>
<path d="M18.0166 0.285156C8.20586 0.285156 0.283203 2.35838 0.283203 4.91289V11.0955C0.283203 13.65 8.24288 15.7233 18.0166 15.7233C27.8274 15.7233 35.7501 13.65 35.7501 11.0955V4.91289C35.7501 2.35838 27.7904 0.285156 18.0166 0.285156ZM5.50327 1.84007C8.83523 0.951548 13.2778 0.470265 18.0166 0.470265C22.7554 0.470265 27.198 0.951548 30.53 1.84007C33.7509 2.69157 35.602 3.80223 35.602 4.9499C35.602 5.98651 34.01 7.06015 31.1964 7.87463C27.8644 8.8372 23.0516 9.42955 18.0166 9.42955C12.9817 9.42955 8.20587 8.87422 4.83688 7.87463C2.06025 7.06015 0.431288 5.98651 0.431288 4.9499C0.431288 3.80223 2.28238 2.69157 5.50327 1.84007Z" fill="white"/>
</svg>
