<svg width="76" height="62" viewBox="0 0 76 62" fill="none" xmlns="http://www.w3.org/2000/svg">
<path d="M62.826 55.8848H63.826V54.8848V43.2238H68.0628V55.6259C68.0628 58.0782 66.0515 60.0884 63.5896 60.0884H6.14305C3.68115 60.0884 1.66992 58.0782 1.66992 55.6259V6.27302C1.66992 3.82066 3.68115 1.81055 6.14305 1.81055H63.5896C66.0515 1.81055 68.0628 3.82066 68.0628 6.27302V17.8494H63.826V7.03523V6.03523H62.826H6.88553H5.88553V7.03523V54.8848V55.8848H6.88553H62.826Z" fill="white" stroke="black" stroke-width="2"/>
<path d="M10.1533 47.0742H9.53809V48.3234H10.1533V47.0742Z" fill="white"/>
<path d="M10.1533 42.1172H9.53809V43.3664H10.1533V42.1172Z" fill="white"/>
<path d="M10.1533 44.5938H9.53809V45.8429H10.1533V44.5938Z" fill="white"/>
<path d="M10.1533 39.6406H9.53809V40.8898H10.1533V39.6406Z" fill="white"/>
<path d="M10.1533 37.1445H9.53809V38.3937H10.1533V37.1445Z" fill="white"/>
<path d="M10.1533 29.7129H9.53809V30.9621H10.1533V29.7129Z" fill="white"/>
<path d="M10.1533 34.668H9.53809V35.9171H10.1533V34.668Z" fill="white"/>
<path d="M10.1533 32.1875H9.53809V33.4367H10.1533V32.1875Z" fill="white"/>
<path d="M16.1969 52.4102H14.9453V53.0242H16.1969V52.4102Z" fill="white"/>
<path d="M17.453 8.87891H16.2227V9.49291H17.453V8.87891Z" fill="white"/>
<path d="M14.9684 8.87891H13.7168V9.49291H14.9684V8.87891Z" fill="white"/>
<path d="M18.6803 52.4102H17.4287V53.0242H18.6803V52.4102Z" fill="white"/>
<path d="M12.4842 8.87891H11.7417C11.5508 8.87891 11.3599 8.90008 11.1689 8.9636L11.3387 9.55642C11.4659 9.51408 11.6144 9.49291 11.7417 9.49291H12.4842V8.87891Z" fill="white"/>
<path d="M10.4723 51.7734L9.98438 52.1545C10.2814 52.5356 10.6844 52.8321 11.1511 52.9591L11.3208 52.3663C10.9814 52.2816 10.6844 52.0699 10.4723 51.7946V51.7734Z" fill="white"/>
<path d="M13.7174 52.4102H12.4658V53.0242H13.7174V52.4102Z" fill="white"/>
<path d="M10.1533 49.5508H9.53809V50.8H10.1533V49.5508Z" fill="white"/>
<path d="M54.7653 8.87891H53.5137V9.49291H54.7653V8.87891Z" fill="white"/>
<path d="M59.2636 10.131L59.7515 9.74986C59.4545 9.36876 59.0514 9.07235 58.5847 8.94531L58.415 9.53814C58.7545 9.62283 59.0515 9.83455 59.2636 10.1098V10.131Z" fill="white"/>
<path d="M19.9547 8.87891H18.7031V9.49291H19.9547V8.87891Z" fill="white"/>
<path d="M60.1972 11.0996H59.582V12.3488H60.1972V11.0996Z" fill="white"/>
<path d="M57.2692 8.87891H56.0176V9.49291H57.2692V8.87891Z" fill="white"/>
<path d="M60.1972 13.5801H59.582V14.8292H60.1972V13.5801Z" fill="white"/>
<path d="M60.1972 16.0566H59.582V17.3058H60.1972V16.0566Z" fill="white"/>
<path d="M10.1533 12.332H9.53809V13.5812H10.1533V12.332Z" fill="white"/>
<path d="M10.1533 19.7832H9.53809V21.0324H10.1533V19.7832Z" fill="white"/>
<path d="M10.1533 22.2617H9.53809V23.5109H10.1533V22.2617Z" fill="white"/>
<path d="M10.1533 24.7363H9.53809V25.9855H10.1533V24.7363Z" fill="white"/>
<path d="M10.1533 27.2148H9.53809V28.464H10.1533V27.2148Z" fill="white"/>
<path d="M10.4715 10.1272L9.98357 9.74609C9.68658 10.1272 9.53809 10.593 9.53809 11.08H10.1533C10.1533 10.72 10.2594 10.4024 10.4715 10.1272Z" fill="white"/>
<path d="M10.1533 14.8066H9.53809V16.0558H10.1533V14.8066Z" fill="white"/>
<path d="M52.2838 8.87891H51.0322V9.49291H52.2838V8.87891Z" fill="white"/>
<path d="M10.1533 17.2832H9.53809V18.5324H10.1533V17.2832Z" fill="white"/>
<path d="M51.0329 52.4102H49.7812V53.0242H51.0329V52.4102Z" fill="white"/>
<path d="M47.2997 8.87891H46.0693V9.49291H47.2997V8.87891Z" fill="white"/>
<path d="M49.8014 8.87891H48.5498V9.49291H49.8014V8.87891Z" fill="white"/>
<path d="M46.0263 52.4102H44.7959V53.0242H46.0263V52.4102Z" fill="white"/>
<path d="M48.5292 52.4102H47.2988V53.0242H48.5292V52.4102Z" fill="white"/>
<path d="M42.3336 8.87891H41.082V9.49291H42.3336V8.87891Z" fill="white"/>
<path d="M44.817 8.87891H43.5654V9.49291H44.817V8.87891Z" fill="white"/>
<path d="M43.567 52.4102H42.3154V53.0242H43.567V52.4102Z" fill="white"/>
<path d="M59.2412 51.7946L59.7291 52.1757C60.0261 51.7946 60.1746 51.3288 60.1746 50.8418H59.5594C59.5594 51.2017 59.4533 51.5193 59.2412 51.8157V51.7946Z" fill="white"/>
<path d="M60.1972 45.8457H59.582V47.0949H60.1972V45.8457Z" fill="white"/>
<path d="M53.5123 52.4102H52.2607V53.0242H53.5123V52.4102Z" fill="white"/>
<path d="M60.1972 43.3672H59.582V44.6164H60.1972V43.3672Z" fill="white"/>
<path d="M60.1972 48.3242H59.582V49.5734H60.1972V48.3242Z" fill="white"/>
<path d="M55.9957 52.4102H54.7441V53.0242H55.9957V52.4102Z" fill="white"/>
<path d="M57.9876 52.4092H57.2451V53.0232H57.9876C58.1785 53.0232 58.3694 53.002 58.5604 52.9385L58.4119 52.3457C58.2846 52.388 58.1361 52.4092 58.0088 52.4092H57.9876Z" fill="white"/>
<path d="M41.0846 52.4102H39.833V53.0242H41.0846V52.4102Z" fill="white"/>
<path d="M39.832 8.87891H38.6016V9.49291H39.832V8.87891Z" fill="white"/>
<path d="M29.903 8.87891H28.6514V9.49291H29.903V8.87891Z" fill="white"/>
<path d="M26.1481 52.4102H24.8965V53.0242H26.1481V52.4102Z" fill="white"/>
<path d="M28.65 52.4102H27.3984V53.0242H28.65V52.4102Z" fill="white"/>
<path d="M27.4215 8.87891H26.1699V9.49291H27.4215V8.87891Z" fill="white"/>
<path d="M22.4352 8.87891H21.1836V9.49291H22.4352V8.87891Z" fill="white"/>
<path d="M23.6657 52.4102H22.4141V53.0242H23.6657V52.4102Z" fill="white"/>
<path d="M24.9176 8.87891H23.666V9.49291H24.9176V8.87891Z" fill="white"/>
<path d="M36.0993 52.4102H34.8477V53.0242H36.0993V52.4102Z" fill="white"/>
<path d="M37.3688 8.87891H36.1172V9.49291H37.3688V8.87891Z" fill="white"/>
<path d="M21.1842 52.4102H19.9326V53.0242H21.1842V52.4102Z" fill="white"/>
<path d="M38.6002 52.4102H37.3486V53.0242H38.6002V52.4102Z" fill="white"/>
<path d="M33.6168 52.4102H32.3652V53.0242H33.6168V52.4102Z" fill="white"/>
<path d="M34.8688 8.87891H33.6172V9.49291H34.8688V8.87891Z" fill="white"/>
<path d="M32.3642 8.87891H31.1338V9.49291H32.3642V8.87891Z" fill="white"/>
<path d="M31.1334 52.4102H29.8818V53.0242H31.1334V52.4102Z" fill="white"/>
<path d="M40.0079 39.576V40.076H40.5079H71.4799H71.9799V39.576V22.257V21.757H71.4799H40.5079H40.0079V22.257V39.576ZM70.3768 42.8658H41.611C39.1709 42.8658 37.1895 40.8869 37.1895 38.4538V23.4003C37.1895 20.9673 39.1709 18.9883 41.611 18.9883H70.3768C72.8169 18.9883 74.7983 20.9673 74.7983 23.4003V38.4538C74.7983 40.8869 72.8169 42.8658 70.3768 42.8658Z" fill="white" stroke="black"/>
<path d="M52.338 30.6651C52.338 32.5787 50.6672 34.1096 48.5985 34.1096C46.5299 34.1096 44.875 32.564 44.875 30.6651C44.875 28.7663 46.5458 27.2207 48.5985 27.2207C50.6512 27.2207 52.338 28.7663 52.338 30.6651Z" fill="white"/>
</svg>
