<svg width="73" height="64" viewBox="0 0 73 64" fill="none" xmlns="http://www.w3.org/2000/svg">
<path d="M62.987 0H9.01693C4.04522 0 0.00195312 4.08125 0.00195312 9.09967V43.9868C0.00195312 49.0052 4.04522 53.0864 9.01693 53.0864H18.2416L16.8339 61.7629C16.7141 62.4884 17.0136 63.214 17.6126 63.6372C17.9421 63.8791 18.3314 64 18.7208 64C19.0203 64 19.3198 63.9395 19.5893 63.7884L39.8955 53.0864H62.987C67.9587 53.0864 72.002 49.0052 72.002 43.9868V9.09967C72.002 4.08125 67.9587 0 62.987 0ZM35.373 11.6089C36.0619 10.9438 36.9005 10.6112 37.9188 10.6112C38.8472 10.6112 39.6858 10.9438 40.3747 11.6089C41.0635 12.274 41.4229 13.1205 41.4229 14.1483C41.4229 15.1762 41.0635 15.9924 40.3747 16.6878C39.6858 17.3831 38.8472 17.7459 37.9188 17.7459C36.9005 17.7459 36.0619 17.3831 35.373 16.6878C34.6841 15.9924 34.3547 15.146 34.3547 14.1483C34.3547 13.1507 34.6841 12.274 35.373 11.6089ZM28.3946 37.1545L32.8871 22.5224H38.1584C37.4995 24.7293 36.8705 26.7851 36.3015 28.6594C35.7923 30.3222 35.2831 31.9547 34.8039 33.5569C34.3247 35.1592 33.9653 36.3684 33.7257 37.1545C33.4861 37.9102 33.3364 38.5149 33.2465 38.9381C33.1567 39.3916 33.1567 39.7544 33.2465 39.9962C33.3064 40.2381 33.3963 40.4195 33.546 40.5404C33.6958 40.6311 33.8156 40.7218 33.9953 40.752C34.3547 40.8729 34.8638 40.752 35.5527 40.2985C36.2416 39.8753 36.8106 39.18 37.2898 38.1521H38.0985C37.6193 39.3614 37.0802 40.4195 36.4512 41.2659C35.8223 42.1124 35.1933 42.8077 34.5344 43.3217C33.8755 43.8658 33.2166 44.2286 32.5577 44.4705C31.8988 44.7123 31.2998 44.8333 30.7607 44.8333C30.2515 44.8333 29.7723 44.7123 29.2931 44.5007C28.8139 44.2891 28.4545 43.8961 28.155 43.3519C27.8555 42.8077 27.7357 42.0217 27.7357 41.0241C27.7357 40.0265 28.0053 38.7265 28.4545 37.1545H28.3946Z" fill="white" fill-opacity="0.8"/>
</svg>
