<svg width="80" height="82" viewBox="0 0 80 82" fill="none" xmlns="http://www.w3.org/2000/svg">
<path d="M77.5606 3.2583H58.5688C57.6415 3.2583 56.8578 4.0418 56.8578 4.95588V21.2788H39.5771C38.6497 21.2788 37.866 22.0623 37.866 22.9764V44.2615H20.5853C19.6579 44.2615 18.8742 45.045 18.8742 45.959V59.0174H1.71109C0.783704 59.0174 0 59.8009 0 60.7149V80.3024C0 81.2165 0.796766 82 1.71109 82H77.5606C78.488 82 79.2717 81.2165 79.2717 80.3024V4.95588C79.1411 4.0418 78.3443 3.2583 77.5606 3.2583ZM3.29156 62.0208H18.9918V78.3437H3.29156V62.0208ZM22.2833 47.3955H37.9835V78.3437H22.2833V47.3955ZM41.2751 24.5434H56.9753V78.3437H41.2751V24.5434ZM75.8365 78.3437H60.1363V6.52288H75.8365V78.3437Z" fill="white"/>
<path d="M16.4463 24.46H8.88631L7.71631 28H2.25631L9.57631 6.88H15.8163L23.1063 28H17.6163L16.4463 24.46ZM15.1563 20.56L12.6663 13.06L10.1763 20.56H15.1563ZM31.053 6.94V28H25.923V6.94H31.053Z" fill="white"/>
</svg>
