<svg width="92" height="92" viewBox="0 0 92 92" fill="none" xmlns="http://www.w3.org/2000/svg">
<path d="M84.4499 0C84.1218 0 83.1752 0 83.0124 0H28.7468C27.7544 0 26.95 0.804632 26.95 1.79686C26.95 2.78908 27.7544 3.59371 28.7468 3.59371H78.0251C77.3146 4.74424 76.9035 6.09799 76.9035 7.54662V31.0822C76.9035 32.0744 77.7079 32.879 78.7003 32.879C79.6927 32.879 80.4972 32.0744 80.4972 31.0822V25.5146H90.1998C91.1922 25.5146 91.9967 24.71 91.9967 23.7178V7.54662C91.9965 3.38546 88.6112 0 84.4499 0ZM88.403 21.9209H80.497V7.54662C80.497 5.36685 82.2703 3.59371 84.4499 3.59371C86.6295 3.59371 88.4028 5.36703 88.4028 7.54662L88.403 21.9209Z" fill="white"/>
<path d="M90.0355 73.2163L78.2984 61.4792C79.6529 58.7167 80.4148 55.6134 80.4148 52.335C80.4148 40.8421 71.0646 31.4922 59.5719 31.4922C48.0792 31.4922 38.7291 40.8421 38.7291 52.335C38.7291 54.9625 39.2191 57.4776 40.1105 59.7952L38.0073 61.8984L29.3567 53.2476C29.0198 52.9107 28.5627 52.7213 28.0862 52.7213C27.6096 52.7213 27.1525 52.9107 26.8156 53.2476L24.7932 55.27V38.8625C24.7932 37.8703 23.9888 37.0657 22.9964 37.0657C22.004 37.0657 21.1995 37.8703 21.1995 38.8625V58.8637L4.95326 75.1101C4.25158 75.8118 4.25158 76.9496 4.95326 77.6514C5.30418 78.0022 5.764 78.1777 6.22381 78.1777C6.68363 78.1777 7.14362 78.0022 7.49437 77.6514L21.1995 63.9463V76.8951H13.2948C12.3024 76.8951 11.4979 77.6998 11.4979 78.692V84.4418C11.4979 88.6029 14.8832 91.9884 19.0446 91.9884H72.9499C77.1112 91.9884 80.4967 88.6029 80.4967 84.4414V82.8988C81.7538 84.119 83.4108 84.79 85.1806 84.79C85.1917 84.79 85.203 84.7898 85.2143 84.7898C87.0241 84.781 88.7241 84.0727 90.0017 82.7951C92.6517 80.1446 92.667 75.8478 90.0355 73.2163ZM59.5718 35.0857C69.0831 35.0857 76.821 42.8237 76.821 52.335C76.821 61.8463 69.0831 69.5843 59.5718 69.5843C53.0405 69.5843 47.3458 65.9356 44.4183 60.5696L54.8024 50.1856V54.2621C54.8024 55.2544 55.6068 56.059 56.5992 56.059C57.5916 56.059 58.3961 55.2544 58.3961 54.2621V45.6387C58.3961 44.6464 57.5916 43.8418 56.5992 43.8418H47.9756C46.9832 43.8418 46.1787 44.6464 46.1787 45.6387C46.1787 46.6309 46.9832 47.4355 47.9756 47.4355H52.4704L42.9517 56.9542C42.5424 55.4834 42.3227 53.9346 42.3227 52.3352C42.3225 42.8235 50.0605 35.0857 59.5718 35.0857ZM19.0444 88.3941C16.8646 88.3939 15.0915 86.6206 15.0915 84.441V80.4881H65.4029V82.6444C65.4029 82.7031 65.4061 82.7612 65.4117 82.8185C65.4061 82.8758 65.4029 82.9338 65.4029 82.9926V84.441C65.4029 85.8898 65.814 87.2438 66.5247 88.3943L19.0444 88.3941ZM76.903 84.4405C76.903 86.6206 75.1295 88.3939 72.9499 88.3939C70.7699 88.3939 68.9966 86.6204 68.9966 84.4407V82.9922C68.9966 82.9335 68.9934 82.8754 68.9878 82.8181C68.9934 82.7608 68.9966 82.7028 68.9966 82.644V78.6911C68.9966 77.6989 68.1922 76.8942 67.1998 76.8942H24.7932V60.3518L28.086 57.0591L36.7366 65.7099C37.0735 66.0468 37.5306 66.2362 38.0071 66.2362C38.4837 66.2362 38.9408 66.0468 39.2777 65.7099L41.7901 63.1975C45.4574 69.1789 52.0562 73.1776 59.5718 73.1776C62.8343 73.1776 65.924 72.4233 68.6762 71.0811L76.903 79.3078V84.4405ZM87.4606 80.2533C86.8572 80.8567 86.0531 81.1914 85.1967 81.1954C85.1915 81.1956 85.1861 81.1956 85.1807 81.1956C84.3369 81.1956 83.5503 80.8732 82.9643 80.2871L71.8461 69.1688C73.5793 67.9017 75.1101 66.3738 76.3808 64.6435L87.4944 75.757C88.7247 76.9875 88.7096 79.0047 87.4606 80.2533Z" fill="white"/>
<path d="M70.9467 50.5469C69.9543 50.5469 69.1499 51.3515 69.1499 52.3437C69.1499 57.6258 64.8525 61.9231 59.5703 61.9231C58.5779 61.9231 57.7734 62.7276 57.7734 63.72C57.7734 64.7122 58.5779 65.5168 59.5703 65.5168C66.8341 65.5168 72.7436 59.6073 72.7436 52.3437C72.7436 51.3515 71.9391 50.5469 70.9467 50.5469Z" fill="white"/>
<path d="M46.0207 30.8938H44.3807V18.8552C44.3807 17.863 43.5763 17.0583 42.5839 17.0583H34.3323C33.3399 17.0583 32.5355 17.863 32.5355 18.8552V30.8938H29.6469V11.4883C29.6469 10.496 28.8424 9.69141 27.85 9.69141H19.944C18.9516 9.69141 18.1472 10.496 18.1472 11.4883V30.8936H15.2727V22.9876C15.2727 21.9954 14.4683 21.1907 13.4759 21.1907H5.57007C4.57767 21.1907 3.77322 21.9954 3.77322 22.9876V30.8936H1.79686C0.804453 30.8936 0 31.6982 0 32.6904C0 33.6827 0.804453 34.4873 1.79686 34.4873H46.0209C47.0133 34.4873 47.8178 33.6827 47.8178 32.6904C47.8176 31.6982 47.0131 30.8938 46.0207 30.8938ZM11.6792 30.8938H7.36693V24.7846H11.6792V30.8938ZM26.0535 30.8938H21.7412V13.2851H26.0535V30.8938ZM40.7872 30.8938H36.1294V20.652H40.7872V30.8938Z" fill="white"/>
<path d="M60.6348 9.69141H46.7165C45.7241 9.69141 44.9197 10.496 44.9197 11.4883C44.9197 12.4805 45.7241 13.2851 46.7165 13.2851H60.6348C61.6272 13.2851 62.4317 12.4805 62.4317 11.4883C62.4315 10.496 61.6272 9.69141 60.6348 9.69141Z" fill="white"/>
<path d="M70.794 10.2179C70.4598 9.88367 69.9962 9.69141 69.5237 9.69141C69.0511 9.69141 68.5875 9.88349 68.2533 10.2179C67.9191 10.5523 67.7268 11.0157 67.7268 11.4883C67.7268 11.9608 67.9191 12.4244 68.2533 12.7585C68.5875 13.0927 69.0511 13.2851 69.5237 13.2851C69.9962 13.2851 70.4598 13.0929 70.794 12.7585C71.1283 12.4244 71.3205 11.9608 71.3205 11.4883C71.3205 11.0159 71.1283 10.5523 70.794 10.2179Z" fill="white"/>
<path d="M53.6746 17.5977H50.7283C49.7358 17.5977 48.9314 18.4023 48.9314 19.3945C48.9314 20.3867 49.7358 21.1914 50.7283 21.1914H53.6746C54.667 21.1914 55.4714 20.3867 55.4714 19.3945C55.4714 18.4023 54.667 17.5977 53.6746 17.5977Z" fill="white"/>
<path d="M69.5235 17.5977H60.6355C59.6431 17.5977 58.8386 18.4023 58.8386 19.3945C58.8386 20.3867 59.6431 21.1914 60.6355 21.1914H69.5235C70.5159 21.1914 71.3203 20.3867 71.3203 19.3945C71.3203 18.4023 70.5159 17.5977 69.5235 17.5977Z" fill="white"/>
<path d="M3.06845 79.5384C2.73424 79.2042 2.27065 79.0117 1.79808 79.0117C1.32371 79.0117 0.861915 79.204 0.5277 79.5384C0.191687 79.8724 0.0012207 80.336 0.0012207 80.8086C0.0012207 81.2811 0.191687 81.7447 0.5277 82.079C0.861915 82.4132 1.32371 82.6054 1.79808 82.6054C2.27065 82.6054 2.73244 82.4133 3.06845 82.079C3.40267 81.7447 3.59493 81.2811 3.59493 80.8086C3.59493 80.3358 3.40267 79.8722 3.06845 79.5384Z" fill="white"/>
</svg>
