<svg width="105" height="78" viewBox="0 0 105 78" fill="none" xmlns="http://www.w3.org/2000/svg">
<path d="M51.3052 29.9067H14.2266C11.4258 29.9067 9.15234 32.1802 9.15234 34.981V72.0596C9.15234 74.8604 11.4258 77.1339 14.2266 77.1339H51.3052C54.106 77.1339 56.3795 74.8604 56.3795 72.0596V34.981C56.3795 32.1802 54.106 29.9067 51.3052 29.9067ZM17.0333 48.4519V44.028C17.0333 42.821 18.0235 41.8307 19.2306 41.8307H23.6545C24.8615 41.8307 25.8518 42.821 25.8518 44.028V48.4519C25.8518 49.6589 24.8615 50.6492 23.6545 50.6492H19.2306C18.0235 50.6492 17.0333 49.6589 17.0333 48.4519ZM42.6449 65.6728H22.8927C22.0959 65.6728 21.4396 65.0224 21.4396 64.2197C21.4396 63.4169 22.09 62.7665 22.8927 62.7665H42.6449C43.4418 62.7665 44.0981 63.4169 44.0981 64.2197C44.0981 65.0224 43.4477 65.6728 42.6449 65.6728ZM48.5044 48.4519C48.5044 49.6589 47.5141 50.6492 46.3071 50.6492H41.8832C40.6762 50.6492 39.6859 49.6589 39.6859 48.4519V44.028C39.6859 42.821 40.6762 41.8307 41.8832 41.8307H46.3071C47.5141 41.8307 48.5044 42.821 48.5044 44.028V48.4519Z" fill="white" fill-opacity="0.8"/>
<path d="M34.7286 6.80896H30.8086V38.4734H34.7286V6.80896Z" fill="white" fill-opacity="0.8"/>
<path d="M37.2244 7.15089C37.6242 4.68811 35.9518 2.36755 33.489 1.96778C31.0262 1.56802 28.7056 3.24042 28.3059 5.70321C27.9061 8.16599 29.5785 10.4866 32.0413 10.8863C34.5041 11.2861 36.8246 9.61368 37.2244 7.15089Z" fill="white" fill-opacity="0.8"/>
<path d="M81.3772 0C68.4865 0 58.0391 7.49423 58.0391 16.7463C58.0391 21.1116 60.3653 25.0843 64.1798 28.0609L59.9199 37.3774L71.8263 32.0219C74.7443 32.9652 77.9788 33.4926 81.3831 33.4926C94.2739 33.4926 104.721 25.9984 104.721 16.7463C104.721 7.49423 94.268 0 81.3772 0ZM71.9201 18.7444C70.7013 18.7444 69.7169 17.76 69.7169 16.5412C69.7169 15.3225 70.7013 14.3381 71.9201 14.3381C73.1389 14.3381 74.1232 15.3225 74.1232 16.5412C74.1232 17.76 73.1389 18.7444 71.9201 18.7444ZM81.3772 18.7444C80.1585 18.7444 79.1741 17.76 79.1741 16.5412C79.1741 15.3225 80.1585 14.3381 81.3772 14.3381C82.596 14.3381 83.5804 15.3225 83.5804 16.5412C83.5804 17.76 82.596 18.7444 81.3772 18.7444ZM90.8344 18.7444C89.6156 18.7444 88.6312 17.76 88.6312 16.5412C88.6312 15.3225 89.6156 14.3381 90.8344 14.3381C92.0532 14.3381 93.0375 15.3225 93.0375 16.5412C93.0375 17.76 92.0532 18.7444 90.8344 18.7444Z" fill="white" fill-opacity="0.8"/>
<path d="M0 43.6353V64.6297C1.78127 65.6609 3.84966 66.2527 6.05867 66.2527V42.0122C3.84966 42.0122 1.78127 42.604 0 43.6353Z" fill="white" fill-opacity="0.8"/>
<path d="M65.5313 43.6353C63.7501 42.604 61.6817 42.0122 59.4727 42.0122V66.2527C61.6817 66.2527 63.7501 65.6609 65.5313 64.6297V43.6353Z" fill="white" fill-opacity="0.8"/>
</svg>
