<svg width="67" height="67" viewBox="0 0 67 67" fill="none" xmlns="http://www.w3.org/2000/svg">
<path d="M65.0629 58.9263L47.4092 41.2726C46.9019 40.7653 46.2293 40.5117 45.5567 40.5117C44.884 40.5117 44.2224 40.7653 43.7042 41.2726L41.2562 43.7205C40.76 44.2057 40.4844 44.8783 40.4844 45.573C40.4844 46.2677 40.76 46.9293 41.2452 47.4255L58.899 65.0792C59.5385 65.7078 60.3986 66.0606 61.3249 66.0606C62.4716 66.0606 63.6625 65.5313 64.5778 64.6051C65.493 63.7009 66.0223 62.51 66.0333 61.3632C66.0333 60.426 65.6915 59.5659 65.0519 58.9263H65.0629ZM62.7363 62.7526C62.2952 63.1937 61.7659 63.4363 61.3359 63.4363C61.1043 63.4363 60.9059 63.3701 60.7625 63.2268L43.1087 45.573L45.5567 43.1251L63.2104 60.7788C63.6295 61.1978 63.4199 62.091 62.7363 62.7636V62.7526Z" fill="white" fill-opacity="0.8"/>
<path d="M25.8734 51.7815C18.9596 51.7815 12.4539 49.091 7.56904 44.1951C-2.52041 34.1056 -2.52041 17.6758 7.56904 7.58638C12.4539 2.70155 18.9596 0 25.8734 0C32.7871 0 39.2929 2.69052 44.1777 7.58638C54.2672 17.6758 54.2672 34.1056 44.1777 44.1951C39.2929 49.091 32.7871 51.7815 25.8734 51.7815ZM25.8734 2.62436C19.6543 2.62436 13.8102 5.05024 9.42153 9.43887C0.346538 18.5139 0.346538 33.2786 9.42153 42.3536C13.8212 46.7533 19.6653 49.1681 25.8734 49.1681C32.0814 49.1681 37.9366 46.7423 42.3363 42.3536C51.4113 33.2786 51.4113 18.5139 42.3363 9.43887C37.9366 5.03921 32.0925 2.62436 25.8844 2.62436H25.8734Z" fill="white" fill-opacity="0.8"/>
<path d="M25.8732 45.3411C20.6797 45.3411 15.7948 43.3233 12.1229 39.6403C4.54757 32.065 4.54757 19.7261 12.1229 12.1507C15.7948 8.47883 20.6797 6.46094 25.8732 6.46094C31.0668 6.46094 35.9517 8.47883 39.6236 12.1507C47.1989 19.7371 47.1989 32.065 39.6236 39.6403C35.9517 43.3122 31.0668 45.3411 25.8732 45.3411ZM25.8732 9.07427C21.3743 9.07427 17.1511 10.8275 13.9754 14.0032C7.41451 20.5641 7.41451 31.238 13.9754 37.7989C17.1511 40.9746 21.3854 42.7278 25.8732 42.7278C30.3611 42.7278 34.5954 40.9746 37.7711 37.7989C44.332 31.238 44.332 20.5641 37.7711 14.0032C34.5954 10.8275 30.3611 9.07427 25.8732 9.07427Z" fill="white" fill-opacity="0.8"/>
</svg>
