<svg width="79" height="79" viewBox="0 0 79 79" fill="none" xmlns="http://www.w3.org/2000/svg">
<path d="M77.2948 0H58.3681C57.4439 0 56.6629 0.780814 56.6629 1.69176V17.9587H39.4414C38.5172 17.9587 37.7362 18.7395 37.7362 19.6505V40.8626H20.5147C19.5905 40.8626 18.8095 41.6434 18.8095 42.5544V55.568H1.70522C0.781018 55.568 0 56.3488 0 57.2597V76.7801C0 77.691 0.794035 78.4718 1.70522 78.4718H77.2948C78.219 78.4718 79 77.691 79 76.7801V1.69176C78.8698 0.780814 78.0758 0 77.2948 0ZM3.28028 58.5611H18.9267V74.828H3.28028V58.5611ZM22.207 43.9859H37.8534V74.828H22.207V43.9859ZM41.1336 21.2121H56.78V74.828H41.1336V21.2121ZM75.5765 74.828H59.9301V3.25339H75.5765V74.828Z" fill="white"/>
<path d="M6.31564 35.9176L31.2952 11.1918V23.0341C31.2952 23.9451 32.0892 24.7259 33.0004 24.7259C33.9116 24.7259 34.7057 23.9451 34.7057 23.0341C34.7057 6.63703 34.7057 7.15757 34.5755 6.76716C34.4453 6.37675 34.0548 5.98635 33.6513 5.85621C33.2608 5.72607 33.6513 5.72607 17.2239 5.72607C16.2997 5.72607 15.5186 6.50689 15.5186 7.41784C15.5186 8.32879 16.3127 9.1096 17.2239 9.1096H29.1865L4.20689 33.8354C3.55604 34.4861 3.55604 35.5272 4.20689 36.1778C4.5974 36.5682 5.65177 36.5682 6.31564 35.9176Z" fill="white"/>
</svg>
