<svg width="67" height="79" viewBox="0 0 67 79" fill="none" xmlns="http://www.w3.org/2000/svg">
<path d="M52.629 0L34.3354 17.503L52.629 5.29711V0Z" fill="white" fill-opacity="0.8"/>
<path d="M59.0758 3.60352L34.3354 19.9517L59.0758 9.16754V3.60352Z" fill="white" fill-opacity="0.8"/>
<path d="M63.8494 34.8115C62.7767 34.8115 61.786 34.252 61.2265 33.3691H52.0952L46.3926 39.1641L48.7178 40.5911L48.8974 46.2526L49.4004 46.0781L54.0046 49.6146V53.9519H61.2214C61.786 53.0691 62.7715 52.5096 63.8443 52.5096C64.7015 52.5096 65.4817 52.8586 66.0463 53.4232L66.036 33.9132C65.4714 34.4727 64.7015 34.8166 63.8443 34.8166L63.8494 34.8115Z" fill="white" fill-opacity="0.8"/>
<path d="M41.2035 36.3669L41.3267 36.0487L43.4106 37.3268L50.7095 30.0279H61.2268C61.7914 29.145 62.7769 28.5855 63.8496 28.5855C64.7017 28.5855 65.4768 28.9294 66.0362 29.4889L66.026 8.36719L34.3306 22.0565V34.514L41.2035 36.3669Z" fill="white" fill-opacity="0.8"/>
<path d="M52.2856 58.9414V61.359L61.34 57.4477C61.3041 57.3964 61.263 57.3399 61.2271 57.2835H53.7177V56.416L52.2856 58.9414Z" fill="white" fill-opacity="0.8"/>
<path d="M13.4248 0V5.29711L31.7183 17.503L13.4248 0Z" fill="white" fill-opacity="0.8"/>
<path d="M6.97754 3.60352V9.16754L31.7179 19.9517L6.97754 3.60352Z" fill="white" fill-opacity="0.8"/>
<path d="M2.20418 28.5855C3.27694 28.5855 4.26245 29.145 4.82707 30.0279H15.3443L22.71 37.3935L24.9017 36.0487L25.0249 36.3669L31.7233 34.5602V22.0565L0.0278438 8.36719L0.0175781 29.4889C0.582193 28.9294 1.35212 28.5855 2.20418 28.5855Z" fill="white" fill-opacity="0.8"/>
<path d="M12.3362 56.1184V57.2887H4.82679C4.79086 57.3452 4.75493 57.3965 4.71387 57.453L13.9376 61.4361V58.9415L12.331 56.1133L12.3362 56.1184Z" fill="white" fill-opacity="0.8"/>
<path d="M2.20395 52.5044C3.27672 52.5044 4.26223 53.0639 4.82684 53.9468H12.2182V49.6095L16.8223 46.073L17.3254 46.2475L17.505 40.5859L19.7224 39.2257L13.9582 33.3691H4.82684C4.26223 34.252 3.27672 34.8115 2.20395 34.8115C1.3519 34.8115 0.576833 34.4676 0.0122188 33.9081L0.00195312 53.4181C0.566568 52.8535 1.34676 52.5044 2.20395 52.5044Z" fill="white" fill-opacity="0.8"/>
<path d="M48.78 67.754L51.3618 64.392V59.6954L45.6541 60.1265L51.4388 58.561L53.0813 55.6661V50.0713L49.2317 47.1147L43.3597 49.1576L40.8754 53.5821L41.9379 48.1003L47.9741 46.1498L47.815 41.1196L41.7942 37.4188L38.9352 44.9128L40.5571 37.1519L33.6483 35.2886V76.3464L37.9856 78.0402H42.3383L48.7851 71.3008V67.7642L48.78 67.754ZM37.5134 72.507L41.7582 65.9626L37.5134 60.1265L44.4119 65.2594L37.5134 72.5121V72.507ZM27.2887 44.9076L24.4297 37.4136L18.4089 41.1144L18.2497 46.1446L24.286 48.0951L25.3485 53.577L22.8642 49.1525L16.9922 47.1096L13.1425 50.0661V55.661L14.7851 58.5559L20.5698 60.1214L14.8621 59.6903V64.3868L17.4439 67.7488V71.2854L23.8908 78.0248H28.2434L32.5807 76.331V35.2732L25.6719 37.1365L27.2938 44.8974L27.2887 44.9076ZM28.7054 72.507L21.8068 65.2543L28.7054 60.1214L24.4605 65.9575L28.7054 72.5019V72.507ZM51.7057 32.445H61.7918C62.0998 33.2868 62.9005 33.8874 63.8501 33.8874C65.0563 33.8874 66.0418 32.907 66.0418 31.6956C66.0418 30.4843 65.0614 29.5039 63.8501 29.5039C62.9056 29.5039 62.0998 30.1096 61.7918 30.9462H51.0898L44.6326 37.4034L45.9518 38.2862L51.7057 32.4399V32.445ZM63.8449 31.0027C64.2299 31.0027 64.543 31.3158 64.543 31.7008C64.543 32.0857 64.2299 32.3988 63.8449 32.3988C63.46 32.3988 63.1469 32.0857 63.1469 31.7008C63.1469 31.3158 63.46 31.0027 63.8449 31.0027ZM63.8449 53.4333C62.9005 53.4333 62.0946 54.039 61.7867 54.8756H54.6314V56.3642H61.7867C62.0946 57.2059 62.8953 57.8065 63.8449 57.8065C65.0511 57.8065 66.0367 56.8261 66.0367 55.6148C66.0367 54.4034 65.0563 53.423 63.8449 53.423V53.4333ZM63.8449 56.3231C63.46 56.3231 63.1469 56.01 63.1469 55.625C63.1469 55.2401 63.46 54.927 63.8449 54.927C64.2299 54.927 64.543 55.2401 64.543 55.625C64.543 56.01 64.2299 56.3231 63.8449 56.3231ZM2.20443 33.8874C3.14887 33.8874 3.95473 33.2817 4.2627 32.445H14.3488L20.1027 38.2914L21.4218 37.4085L14.9647 30.9514H4.2627C3.95473 30.1096 3.154 29.509 2.20443 29.509C0.998204 29.509 0.0126953 30.4894 0.0126953 31.7008C0.0126953 32.9121 0.993071 33.8925 2.20443 33.8925V33.8874ZM2.20443 30.9976C2.58939 30.9976 2.90249 31.3107 2.90249 31.6956C2.90249 32.0806 2.58939 32.3937 2.20443 32.3937C1.81946 32.3937 1.50636 32.0806 1.50636 31.6956C1.50636 31.3107 1.81946 30.9976 2.20443 30.9976ZM2.20443 57.8065C3.14887 57.8065 3.95473 57.2008 4.2627 56.3642H11.4179V54.8756H4.2627C3.95473 54.0338 3.154 53.4333 2.20443 53.4333C0.998204 53.4333 0.0126953 54.4137 0.0126953 55.625C0.0126953 56.8364 0.993071 57.8168 2.20443 57.8168V57.8065ZM2.20443 54.9167C2.58939 54.9167 2.90249 55.2298 2.90249 55.6148C2.90249 55.9997 2.58939 56.3128 2.20443 56.3128C1.81946 56.3128 1.50636 55.9997 1.50636 55.6148C1.50636 55.2298 1.81946 54.9167 2.20443 54.9167Z" fill="white" fill-opacity="0.8"/>
</svg>
