<svg width="105" height="70" viewBox="0 0 105 70" fill="none" xmlns="http://www.w3.org/2000/svg">
<path d="M82.7422 40.7637V28.5954H61.5678L76.8855 11.1822H82.7422V3.00009L103.016 21.8819L82.7422 40.7637Z" stroke="white" stroke-width="2"/>
<path d="M70.9844 10.7642L56.3565 29.2776H52.2424L66.4132 10.7642H70.9844Z" fill="white"/>
<path d="M61.6133 10.7642L46.9854 29.2776H42.8714L57.0421 10.7642H61.6133Z" fill="white"/>
<path d="M52.4727 10.7642L37.8448 29.2776H33.7307L47.9015 10.7642H52.4727Z" fill="white"/>
<path d="M22.2734 29.2363L22.2734 41.4046L43.4478 41.4046L28.1302 58.8178L22.2734 58.8178L22.2734 66.9999L2 48.1181L22.2734 29.2363Z" stroke="white" stroke-width="2"/>
<path d="M34.0312 59.2358L48.6591 40.7224L52.7732 40.7224L38.6024 59.2358L34.0312 59.2358Z" fill="white"/>
<path d="M43.4023 59.2358L58.0302 40.7224L62.1443 40.7224L47.9735 59.2358L43.4023 59.2358Z" fill="white"/>
<path d="M52.543 59.2358L67.1708 40.7224L71.2849 40.7224L57.1142 59.2358L52.543 59.2358Z" fill="white"/>
</svg>
