<svg width="91" height="94" viewBox="0 0 91 94" fill="none" xmlns="http://www.w3.org/2000/svg">
<path d="M88.4948 50.5247H82.2505L73.1254 11.1476C76.1152 9.90737 77.5322 6.65179 76.4266 3.70625C75.1653 0.605695 71.7084 -0.789557 68.7186 0.450667C66.3672 1.38083 64.9502 3.70625 64.9502 6.03167L53.4737 10.5275C51.7453 7.89201 48.7555 6.03167 45.2985 6.03167C39.3189 6.03167 34.6006 11.4577 35.5505 17.3487L24.0741 21.8445C22.9685 20.6043 21.3957 19.8292 19.6672 19.8292C15.5718 19.8292 12.5976 24.0149 14.1704 27.7356C14.7933 29.4409 16.0546 30.5261 17.7831 31.1462L8.34651 69.7482H2.03991C0.934311 69.7482 0 70.6783 0 71.7635V73.6239C0 84.3208 8.81367 93.0024 19.6517 93.0024C30.4897 93.0024 39.3033 84.3208 39.3033 73.6239V71.6085C39.3033 70.5233 38.3535 69.5931 37.2634 69.5931H30.9724L21.5359 30.8361C24.0585 29.906 25.46 27.5806 25.3043 25.2551L36.7807 20.7593C38.5092 23.3948 41.499 25.2551 44.9559 25.2551C51.0912 25.2551 55.6538 19.8292 54.7039 13.9381L66.1804 9.44229C66.8032 10.0624 67.4417 10.6825 68.2203 10.9926L59.0952 50.3697H52.8041C51.6985 50.3697 50.7642 51.2998 50.7642 52.385V54.4004C50.7642 65.0973 59.5779 73.7789 70.4159 73.7789C81.2539 73.7789 90.0676 65.0973 90.0676 54.4004V52.385C90.5347 51.4549 89.6004 50.5247 88.4948 50.5247ZM19.6517 23.7049C20.4303 23.7049 21.2244 24.1699 21.5359 24.9451C22.003 26.1853 21.0687 27.5806 19.6517 27.5806C18.8731 27.5806 18.0789 27.1155 17.7675 26.3403C17.3003 24.9451 18.2346 23.7049 19.6517 23.7049ZM19.8074 89.1267C11.165 89.1267 4.07982 82.1504 4.07982 73.6239H35.535C35.535 82.1504 28.4653 89.1267 19.8074 89.1267ZM12.4108 69.7482L19.8074 39.5177L27.204 69.7482H12.4263H12.4108ZM45.2985 21.5345C41.9973 21.5345 39.3189 18.899 39.3189 15.6434C39.3189 12.3878 41.9973 9.75235 45.2985 9.75235C48.5997 9.75235 51.2781 12.3878 51.2781 15.6434C51.2781 18.899 48.5997 21.5345 45.2985 21.5345ZM70.9298 3.86128C71.7084 3.86128 72.5025 4.32637 72.814 5.10151C73.2811 6.03167 72.6582 7.2719 71.7084 7.58195C70.7585 7.89201 69.5127 7.42693 69.1857 6.49676C68.7186 5.56659 69.4972 3.86128 70.9142 3.86128H70.9298ZM63.5487 50.5247L70.9376 18.6226L78.3264 50.5247H63.5487ZM70.9298 69.9032C62.2874 69.9032 55.2022 62.9269 55.2022 54.4004H86.6573C86.6573 62.9269 79.5877 69.9032 70.9298 69.9032Z" fill="white"/>
<path d="M88.4948 50.5247H82.2505L73.1254 11.1476C76.1152 9.90737 77.5322 6.65179 76.4266 3.70625C75.1653 0.605695 71.7084 -0.789557 68.7186 0.450667C66.3672 1.38083 64.9502 3.70625 64.9502 6.03167L53.4737 10.5275C51.7453 7.89201 48.7555 6.03167 45.2985 6.03167C39.3189 6.03167 34.6006 11.4577 35.5505 17.3487L24.0741 21.8445C22.9685 20.6043 21.3957 19.8292 19.6672 19.8292C15.5718 19.8292 12.5976 24.0149 14.1704 27.7356C14.7933 29.4409 16.0546 30.5261 17.7831 31.1462L8.34651 69.7482H2.03991C0.934311 69.7482 0 70.6783 0 71.7635V73.6239C0 84.3208 8.81367 93.0024 19.6517 93.0024C30.4897 93.0024 39.3033 84.3208 39.3033 73.6239V71.6085C39.3033 70.5233 38.3535 69.5931 37.2634 69.5931H30.9724L21.5359 30.8361C24.0585 29.906 25.46 27.5806 25.3043 25.2551L36.7807 20.7593C38.5092 23.3948 41.499 25.2551 44.9559 25.2551C51.0912 25.2551 55.6538 19.8292 54.7039 13.9381L66.1804 9.44229C66.8032 10.0624 67.4417 10.6825 68.2203 10.9926L59.0952 50.3697H52.8041C51.6985 50.3697 50.7642 51.2998 50.7642 52.385V54.4004C50.7642 65.0973 59.5779 73.7789 70.4159 73.7789C81.2539 73.7789 90.0676 65.0973 90.0676 54.4004V52.385C90.5347 51.4549 89.6004 50.5247 88.4948 50.5247ZM19.6517 23.7049C20.4303 23.7049 21.2244 24.1699 21.5359 24.9451C22.003 26.1853 21.0687 27.5806 19.6517 27.5806C18.8731 27.5806 18.0789 27.1155 17.7675 26.3403C17.3003 24.9451 18.2346 23.7049 19.6517 23.7049ZM19.8074 89.1267C11.165 89.1267 4.07982 82.1504 4.07982 73.6239H35.535C35.535 82.1504 28.4653 89.1267 19.8074 89.1267ZM12.4108 69.7482L19.8074 39.5177L27.204 69.7482H12.4263H12.4108ZM45.2985 21.5345C41.9973 21.5345 39.3189 18.899 39.3189 15.6434C39.3189 12.3878 41.9973 9.75235 45.2985 9.75235C48.5997 9.75235 51.2781 12.3878 51.2781 15.6434C51.2781 18.899 48.5997 21.5345 45.2985 21.5345ZM70.9298 3.86128C71.7084 3.86128 72.5025 4.32637 72.814 5.10151C73.2811 6.03167 72.6582 7.2719 71.7084 7.58195C70.7585 7.89201 69.5127 7.42693 69.1857 6.49676C68.7186 5.56659 69.4972 3.86128 70.9142 3.86128H70.9298ZM63.5487 50.5247L70.9376 18.6226L78.3264 50.5247H63.5487ZM70.9298 69.9032C62.2874 69.9032 55.2022 62.9269 55.2022 54.4004H86.6573C86.6573 62.9269 79.5877 69.9032 70.9298 69.9032Z" stroke="black"/>
</svg>
