<svg width="88" height="72" viewBox="0 0 88 72" fill="none" xmlns="http://www.w3.org/2000/svg">
<path d="M32.4547 54.295H58.5015C67.4462 54.295 74.768 46.9785 74.768 38.0285V16.2665C74.768 7.32182 67.4516 0 58.5015 0H16.2685C7.31842 0 0.00195312 7.31646 0.00195312 16.2665V38.0338C0.00195312 45.5752 5.2081 51.9651 12.2032 53.7808L6.31146 66.6623L32.46 54.3004L32.4547 54.295ZM52.2456 39.4103H22.5191C21.6675 39.4103 20.9765 38.7194 20.9765 37.8678C20.9765 37.0162 21.6675 36.3252 22.5191 36.3252H52.2456C53.0972 36.3252 53.7881 37.0162 53.7881 37.8678C53.7881 38.7194 53.0972 39.4103 52.2456 39.4103ZM22.5244 14.8847H52.2509C53.1025 14.8847 53.7935 15.5756 53.7935 16.4272C53.7935 17.2788 53.1025 17.9698 52.2509 17.9698H22.5244C21.6728 17.9698 20.9819 17.2788 20.9819 16.4272C20.9819 15.5756 21.6728 14.8847 22.5244 14.8847ZM16.7452 25.6076H58.0248C58.8764 25.6076 59.5674 26.2986 59.5674 27.1502C59.5674 28.0018 58.8764 28.6927 58.0248 28.6927H16.7452C15.8936 28.6927 15.2026 28.0018 15.2026 27.1502C15.2026 26.2986 15.8936 25.6076 16.7452 25.6076Z" fill="white" fill-opacity="0.8"/>
<path d="M78.9526 28.0073V38.0286C78.9526 49.3032 69.783 58.4729 58.5083 58.4729H38.9585C40.8546 61.5848 44.2878 63.6737 48.1817 63.6737H65.4659L82.8198 71.8793L78.9098 63.3309C83.5536 62.1258 87.0029 57.8891 87.0029 52.8811V38.4357C87.0029 33.4491 83.5696 29.2231 78.9526 28.002V28.0073Z" fill="white" fill-opacity="0.8"/>
</svg>
