<svg width="66" height="59" viewBox="0 0 66 59" fill="none" xmlns="http://www.w3.org/2000/svg">
<g clip-path="url(#clip0_1_19960)">
<path d="M32.4989 17.8777C50.4464 17.8777 64.9958 13.8756 64.9958 8.93883C64.9958 4.00205 50.4464 0 32.4989 0C14.5513 0 0.00195312 4.00205 0.00195312 8.93883C0.00195312 13.8756 14.5513 17.8777 32.4989 17.8777Z" fill="white" fill-opacity="0.8"/>
<path d="M56.175 17.8082C49.818 19.5535 41.4121 20.5197 32.4987 20.5197C23.5853 20.5197 15.1856 19.5598 8.82238 17.8082C4.85467 16.7173 1.90828 15.3833 -0.00439453 13.8125V22.7451C-0.00439453 27.682 14.548 31.6839 32.4925 31.6839C50.437 31.6839 64.9894 27.682 64.9894 22.7451V13.8125C63.0767 15.3833 60.1304 16.7173 56.1626 17.8082H56.175ZM25.2627 28.3739C24.2166 28.3739 23.3686 27.5199 23.3686 26.4665C23.3686 25.413 24.2166 24.559 25.2627 24.559C26.3088 24.559 27.1568 25.413 27.1568 26.4665C27.1568 27.5199 26.3088 28.3739 25.2627 28.3739ZM32.4987 28.3739C31.4526 28.3739 30.6046 27.5199 30.6046 26.4665C30.6046 25.413 31.4526 24.559 32.4987 24.559C33.5448 24.559 34.3928 25.413 34.3928 26.4665C34.3928 27.5199 33.5448 28.3739 32.4987 28.3739ZM39.7347 28.3739C38.6886 28.3739 37.8344 27.5199 37.8344 26.4665C37.8344 25.413 38.6824 24.559 39.7347 24.559C40.787 24.559 41.6288 25.413 41.6288 26.4665C41.6288 27.5199 40.7808 28.3739 39.7347 28.3739Z" fill="white" fill-opacity="0.8"/>
<path d="M56.175 31.4722C49.818 33.2176 41.4121 34.1838 32.4987 34.1838C23.5853 34.1838 15.1856 33.2238 8.82238 31.4722C4.85467 30.3814 1.90828 29.0474 -0.00439453 27.4766V36.4092C-0.00439453 41.3461 14.548 45.348 32.4925 45.348C50.437 45.348 64.9894 41.3461 64.9894 36.4092V27.4766C63.0767 29.0474 60.1304 30.3814 56.1626 31.4722H56.175ZM25.2627 41.8261C24.2166 41.8261 23.3686 40.9721 23.3686 39.9186C23.3686 38.8652 24.2166 38.0112 25.2627 38.0112C26.3088 38.0112 27.1568 38.8652 27.1568 39.9186C27.1568 40.9721 26.3088 41.8261 25.2627 41.8261ZM32.4987 41.8261C31.4526 41.8261 30.6046 40.9721 30.6046 39.9186C30.6046 38.8652 31.4526 38.0112 32.4987 38.0112C33.5448 38.0112 34.3928 38.8652 34.3928 39.9186C34.3928 40.9721 33.5448 41.8261 32.4987 41.8261ZM39.7347 41.8261C38.6886 41.8261 37.8344 40.9721 37.8344 39.9186C37.8344 38.8652 38.6824 38.0112 39.7347 38.0112C40.787 38.0112 41.6288 38.8652 41.6288 39.9186C41.6288 40.9721 40.7808 41.8261 39.7347 41.8261Z" fill="white" fill-opacity="0.8"/>
<path d="M56.175 45.1308C49.818 46.8762 41.4121 47.8424 32.4987 47.8424C23.5853 47.8424 15.1856 46.8824 8.82238 45.1308C4.85467 44.0399 1.90828 42.706 -0.00439453 41.1351V50.0615C-0.00439453 54.9984 14.548 59.0003 32.4925 59.0003C50.437 59.0003 64.9894 54.9984 64.9894 50.0615V41.1289C63.0767 42.6997 60.1304 44.0337 56.1626 45.1246L56.175 45.1308ZM25.2627 55.2727C24.2166 55.2727 23.3686 54.4187 23.3686 53.3652C23.3686 52.3118 24.2166 51.4578 25.2627 51.4578C26.3088 51.4578 27.1568 52.3118 27.1568 53.3652C27.1568 54.4187 26.3088 55.2727 25.2627 55.2727ZM32.4987 55.2727C31.4526 55.2727 30.6046 54.4187 30.6046 53.3652C30.6046 52.3118 31.4526 51.4578 32.4987 51.4578C33.5448 51.4578 34.3928 52.3118 34.3928 53.3652C34.3928 54.4187 33.5448 55.2727 32.4987 55.2727ZM39.7347 55.2727C38.6886 55.2727 37.8344 54.4187 37.8344 53.3652C37.8344 52.3118 38.6824 51.4578 39.7347 51.4578C40.787 51.4578 41.6288 52.3118 41.6288 53.3652C41.6288 54.4187 40.7808 55.2727 39.7347 55.2727Z" fill="white" fill-opacity="0.8"/>
</g>
<defs>
<clipPath id="clip0_1_19960">
<rect width="65" height="59" fill="white" transform="translate(0.00195312)"/>
</clipPath>
</defs>
</svg>
