<svg width="68" height="74" viewBox="0 0 68 74" fill="none" xmlns="http://www.w3.org/2000/svg">
<path d="M34.3366 24.9824L30.4355 34.5905H38.2414L34.3366 24.9824Z" fill="white" fill-opacity="0.8"/>
<path d="M10.7082 58.7674L6.26647 69.866C5.83469 70.9474 6.11253 72.1864 6.96858 72.9786C7.50174 73.4705 8.18884 73.7296 8.88344 73.7296C9.30396 73.7296 9.73199 73.6357 10.1262 73.4405L24.146 66.547C27.3337 67.5119 30.6415 68 34.0019 68C52.7487 68 68 52.7487 68 34.0019C68 15.255 52.7487 0 33.9981 0C15.2475 0 0 15.2513 0 33.9981C0 43.4335 3.87853 52.347 10.7082 58.7674ZM19.7493 45.9228L23.6504 36.326C23.6504 36.326 23.6541 36.3147 23.6579 36.3072L31.7266 16.4453C32.1584 15.3827 33.1909 14.6881 34.336 14.6881C35.4812 14.6881 36.5137 15.3827 36.9455 16.4453L48.9228 45.9266C49.5085 47.3683 48.8139 49.0091 47.3758 49.5948C47.0304 49.7375 46.67 49.8013 46.317 49.8013C45.2057 49.8013 44.1506 49.1368 43.7076 48.0442L40.5312 40.2233H28.1484L24.972 48.0442C24.3863 49.4859 22.7455 50.1806 21.3037 49.5911C19.862 49.0054 19.1711 47.3646 19.7568 45.9228H19.7493Z" fill="white" fill-opacity="0.8"/>
</svg>
