<svg width="65" height="59" viewBox="0 0 65 59" fill="none" xmlns="http://www.w3.org/2000/svg">
<g clip-path="url(#clip0_1_20041)">
<path d="M32.4959 17.8777C50.4435 17.8777 64.9928 13.8756 64.9928 8.93883C64.9928 4.00205 50.4435 0 32.4959 0C14.5484 0 -0.000976562 4.00205 -0.000976562 8.93883C-0.000976562 13.8756 14.5484 17.8777 32.4959 17.8777Z" fill="white" fill-opacity="0.8"/>
<path d="M56.1721 17.8082C49.8151 19.5535 41.4092 20.5197 32.4958 20.5197C23.5823 20.5197 15.1827 19.5598 8.81945 17.8082C4.85174 16.7173 1.90535 15.3833 -0.00732422 13.8125V22.7451C-0.00732422 27.682 14.5451 31.6839 32.4896 31.6839C50.4341 31.6839 64.9865 27.682 64.9865 22.7451V13.8125C63.0738 15.3833 60.1274 16.7173 56.1597 17.8082H56.1721ZM25.2598 28.3739C24.2137 28.3739 23.3657 27.5199 23.3657 26.4665C23.3657 25.413 24.2137 24.559 25.2598 24.559C26.3059 24.559 27.1539 25.413 27.1539 26.4665C27.1539 27.5199 26.3059 28.3739 25.2598 28.3739ZM32.4958 28.3739C31.4497 28.3739 30.6017 27.5199 30.6017 26.4665C30.6017 25.413 31.4497 24.559 32.4958 24.559C33.5419 24.559 34.3899 25.413 34.3899 26.4665C34.3899 27.5199 33.5419 28.3739 32.4958 28.3739ZM39.7318 28.3739C38.6857 28.3739 37.8315 27.5199 37.8315 26.4665C37.8315 25.413 38.6795 24.559 39.7318 24.559C40.784 24.559 41.6259 25.413 41.6259 26.4665C41.6259 27.5199 40.7778 28.3739 39.7318 28.3739Z" fill="white" fill-opacity="0.8"/>
<path d="M56.1721 31.4722C49.8151 33.2176 41.4092 34.1838 32.4958 34.1838C23.5823 34.1838 15.1827 33.2238 8.81945 31.4722C4.85174 30.3814 1.90535 29.0474 -0.00732422 27.4766V36.4092C-0.00732422 41.3461 14.5451 45.348 32.4896 45.348C50.4341 45.348 64.9865 41.3461 64.9865 36.4092V27.4766C63.0738 29.0474 60.1274 30.3814 56.1597 31.4722H56.1721ZM25.2598 41.8261C24.2137 41.8261 23.3657 40.9721 23.3657 39.9186C23.3657 38.8652 24.2137 38.0112 25.2598 38.0112C26.3059 38.0112 27.1539 38.8652 27.1539 39.9186C27.1539 40.9721 26.3059 41.8261 25.2598 41.8261ZM32.4958 41.8261C31.4497 41.8261 30.6017 40.9721 30.6017 39.9186C30.6017 38.8652 31.4497 38.0112 32.4958 38.0112C33.5419 38.0112 34.3899 38.8652 34.3899 39.9186C34.3899 40.9721 33.5419 41.8261 32.4958 41.8261ZM39.7318 41.8261C38.6857 41.8261 37.8315 40.9721 37.8315 39.9186C37.8315 38.8652 38.6795 38.0112 39.7318 38.0112C40.784 38.0112 41.6259 38.8652 41.6259 39.9186C41.6259 40.9721 40.7778 41.8261 39.7318 41.8261Z" fill="white" fill-opacity="0.8"/>
<path d="M56.1721 45.1308C49.8151 46.8762 41.4092 47.8424 32.4958 47.8424C23.5823 47.8424 15.1827 46.8824 8.81945 45.1308C4.85174 44.0399 1.90535 42.706 -0.00732422 41.1351V50.0615C-0.00732422 54.9984 14.5451 59.0003 32.4896 59.0003C50.4341 59.0003 64.9865 54.9984 64.9865 50.0615V41.1289C63.0738 42.6997 60.1274 44.0337 56.1597 45.1246L56.1721 45.1308ZM25.2598 55.2727C24.2137 55.2727 23.3657 54.4187 23.3657 53.3652C23.3657 52.3118 24.2137 51.4578 25.2598 51.4578C26.3059 51.4578 27.1539 52.3118 27.1539 53.3652C27.1539 54.4187 26.3059 55.2727 25.2598 55.2727ZM32.4958 55.2727C31.4497 55.2727 30.6017 54.4187 30.6017 53.3652C30.6017 52.3118 31.4497 51.4578 32.4958 51.4578C33.5419 51.4578 34.3899 52.3118 34.3899 53.3652C34.3899 54.4187 33.5419 55.2727 32.4958 55.2727ZM39.7318 55.2727C38.6857 55.2727 37.8315 54.4187 37.8315 53.3652C37.8315 52.3118 38.6795 51.4578 39.7318 51.4578C40.784 51.4578 41.6259 52.3118 41.6259 53.3652C41.6259 54.4187 40.7778 55.2727 39.7318 55.2727Z" fill="white" fill-opacity="0.8"/>
</g>
<defs>
<clipPath id="clip0_1_20041">
<rect width="65" height="59" fill="white" transform="translate(-0.000976562)"/>
</clipPath>
</defs>
</svg>
