<svg width="295" height="204" viewBox="0 0 295 204" fill="none" xmlns="http://www.w3.org/2000/svg">
<g opacity="0.7">
<path d="M139.6 2.13672L107.193 13.4112M139.6 2.13672L165.032 4.48254L209.014 9.29821L248.882 36.7867L270.873 67.0241M139.6 2.13672L99.0493 9.29821L62.6218 20.2936L24.1379 50.531L5.57795 74.5886L2.13672 118.581L18.6402 149.5L42.6875 157.065H71.5608L90.8028 177.681L109.228 183.685L135.931 180.43L145.676 167.605L162.035 163.937L200.767 153.623L221.384 146.751H246.816L280.494 139.197M278.893 104.712L280.494 139.197M280.494 139.197L292.864 116.514M292.864 116.514L270.873 67.0241M292.864 116.514L288.059 95.5461L270.873 67.0241" stroke="#0096FF" stroke-width="4" stroke-linecap="round" stroke-linejoin="round"/>
<path d="M24.1387 50.5309L71.5616 29.2221L102.502 21.0376L165.033 4.48242L62.6226 20.2935L94.3998 23.1767L107.193 63.5931V108.567" stroke="#0096FF" stroke-width="4" stroke-linecap="round" stroke-linejoin="round"/>
<path d="M165.031 4.48242L151.514 22.815C151.514 22.815 131.807 43.8861 131.807 45.2605C131.807 46.635 126.309 100.403 126.309 100.403M42.6864 157.064L14.0508 124.068L18.6391 149.5M94.3979 23.1767L42.6864 63.5931L37.7674 125.329L71.5597 157.064" stroke="#0096FF" stroke-width="4" stroke-linecap="round" stroke-linejoin="round"/>
<path d="M14.0508 124.067L37.7674 125.328L91.9488 114.446M162.034 69.545L180.377 84.209M182.206 75.0427L229.867 94.4603M270.872 67.0235L217.497 31.9704L151.514 22.8145" stroke="#0096FF" stroke-width="4" stroke-linecap="round" stroke-linejoin="round"/>
<path d="M91.95 114.448L123.396 128.202L176.296 84.758L216.124 116.514L221.384 146.752L245.906 91.9711M91.95 114.448L117.144 104.713L152.89 87.8788L180.378 84.2102L229.868 94.4616L245.906 91.9711M91.95 114.448L81.864 133.7L71.5609 157.065L34.6684 141.946L14.052 124.069L5.57812 74.5893L42.6876 63.5938H107.193L131.808 45.2613L162.035 69.5463L182.207 75.044L270.873 67.0247M245.906 91.9711L246.816 146.752L271.556 123.159L278.893 104.713L270.873 67.0247M245.906 91.9711L270.873 67.0247M270.873 67.0247L253.233 50.3043L209.014 9.29883L151.515 22.8157" stroke="#0096FF" stroke-width="4" stroke-linecap="round" stroke-linejoin="round"/>
<path d="M123.396 128.202L114.86 157.065M114.86 157.065L90.8027 177.681M114.86 157.065L145.676 167.606M114.86 157.065L152.425 131.405L216.124 116.514L245.906 91.9707" stroke="#0096FF" stroke-width="4" stroke-linecap="round" stroke-linejoin="round"/>
<path d="M109.229 183.686L131.808 162.863L221.384 146.752M209.014 9.29883L217.498 31.9717L182.207 75.044M165.311 177.682L217.498 189.142L255.062 177.682" stroke="#0096FF" stroke-width="4" stroke-linecap="round" stroke-linejoin="round"/>
<path d="M263.795 142.947L265.604 157.064M265.604 157.064L255.063 177.68L221.385 194.638H195.498L165.312 177.68L162.036 163.936L192.294 170.694L234.87 174.652L255.063 165.217L265.604 157.064Z" stroke="#0096FF" stroke-width="4" stroke-linecap="round" stroke-linejoin="round"/>
<path d="M152.424 166.086L159.141 184.584L196.922 201.046L195.496 194.639L265.086 157.873L263.393 143.201L235.82 146.751L200.766 153.623" stroke="#0096FF" stroke-width="4" stroke-linecap="round" stroke-linejoin="round"/>
<path d="M200.766 153.622L162.034 163.936L152.424 166.085M235.819 146.75H246.815L263.794 142.947" stroke="#0096FF" stroke-width="4" stroke-linecap="round" stroke-linejoin="round"/>
</g>
</svg>
