<?xml version="1.0" encoding="utf-8"?>
<!-- Generator: Adobe Illustrator 27.4.0, SVG Export Plug-In . SVG Version: 6.00 Build 0)  -->
<svg version="1.1" id="Layer_1" xmlns="http://www.w3.org/2000/svg" xmlns:xlink="http://www.w3.org/1999/xlink" x="0px" y="0px"
	 viewBox="0 0 230 46" style="enable-background:new 0 0 230 46;" xml:space="preserve">
<style type="text/css">
	.st0{fill:url(#SVGID_1_);}
	.st1{fill:#FFFFFF;}
	.st2{fill:#0096FF;}
</style>
<g>
	
		<linearGradient id="SVGID_1_" gradientUnits="userSpaceOnUse" x1="-1101.1274" y1="1.8037" x2="-1069.722" y2="45.8344" gradientTransform="matrix(-1 0 0 1 -1061.661 0)">
		<stop  offset="2.428565e-02" style="stop-color:#00B2F5"/>
		<stop  offset="0.9594" style="stop-color:#005CD2"/>
	</linearGradient>
	<path class="st0" d="M7.9,8.2c0-1.4,1.1-2.5,2.5-2.5c1.4,0,2.5,1.1,2.5,2.5c0,1.4-1.1,2.5-2.5,2.5C9,10.7,7.9,9.6,7.9,8.2z
		 M30.1,10.2c0.4,0,0.8,0,1.2,0.1L31.8,6c-0.1,0-0.2,0-0.3,0c-0.5,0-0.9-0.1-1.3-0.3l-0.5,4.5C29.8,10.2,29.9,10.2,30.1,10.2z
		 M24.3,17.4c-0.1-0.4-0.2-0.9-0.2-1.3c0-0.1,0-0.2,0-0.3l-3.4,0.4c0.1,0.4,0.2,0.8,0.2,1.2c0,0.1,0,0.3,0,0.4L24.3,17.4z
		 M33.7,20.7l4.3,4.2c0.3-0.5,0.7-0.9,1.2-1.2l-4.4-4.2C34.5,20,34.1,20.4,33.7,20.7z M29,2.5C29,3.9,30.1,5,31.4,5
		c1.4,0,2.5-1.1,2.5-2.5c0-1.4-1.1-2.5-2.5-2.5C30.1,0,29,1.1,29,2.5z M7.5,10.1l-6.3,8.7l-1,11.1l6.5,4.3l0,1.3
		c0.3-0.1,0.6-0.2,1-0.2c0.2,0,0.5,0,0.7,0.1l0-1.6l0.5-5c-0.1,0-0.2,0-0.3,0c-0.5,0-0.9-0.1-1.3-0.3l-0.4,3.7L1.9,29l0.8-8.2
		l2.8,2.6c0.3-0.5,0.7-0.9,1.2-1.2l-2.8-2.6l4.3-0.5l-0.3,2.6c0.2,0,0.4-0.1,0.6-0.1c0.4,0,0.7,0.1,1.1,0.2L9.9,19l3.6-0.4
		c-0.1-0.4-0.2-0.8-0.2-1.3c0-0.1,0-0.3,0-0.4l-3.3,0.4l0.6-5.6c-0.1,0-0.2,0-0.3,0c-0.5,0-0.9-0.1-1.4-0.3l-0.7,6.1L3.8,18l4.9-6.8
		C8.2,11,7.8,10.6,7.5,10.1z M40.8,29c1.3,0,2.4-1.1,2.4-2.4c0-1.3-1.1-2.4-2.4-2.4s-2.4,1.1-2.4,2.4C38.5,28,39.5,29,40.8,29z
		 M11,25.3c0-1.4-1.1-2.5-2.5-2.5c-1.4,0-2.5,1.1-2.5,2.5c0,1.4,1.1,2.5,2.5,2.5C9.9,27.8,11,26.6,11,25.3z M9.4,38.2
		c0-1.1-0.9-1.9-1.9-1.9c-1.1,0-1.9,0.9-1.9,1.9c0,1.1,0.9,1.9,1.9,1.9C8.6,40.1,9.4,39.2,9.4,38.2z M24.9,32.9
		c0,1.6,1.3,2.9,2.9,2.9s2.9-1.3,2.9-2.9c0-1.6-1.3-2.9-2.9-2.9S24.9,31.3,24.9,32.9z M12,11.3l2.4,3.4c0.4-0.4,0.9-0.7,1.4-1
		l-2.5-3.6C12.9,10.7,12.5,11.1,12,11.3z M44.2,27.2l5.2-0.7l2.8-8.9c0,0-0.1,0-0.1,0c-0.6,0-1.1-0.2-1.5-0.4L48.1,25L44,25.5
		c0.1,0.4,0.2,0.8,0.2,1.2C44.2,26.8,44.2,27,44.2,27.2z M50.9,11.5l-3.8-4.4L34.9,2.6c0,0.6-0.2,1.1-0.4,1.6l10.1,3.8l-9.7,4.7
		c0.3,0.5,0.6,0.9,0.8,1.5l10.9-5.2l3.1,3.7C49.9,12.1,50.4,11.7,50.9,11.5z M20,17.4c0-1.6-1.3-2.8-2.8-2.8s-2.8,1.3-2.8,2.8
		s1.3,2.8,2.8,2.8S20,18.9,20,17.4z M16.2,42.3l2.8-2.9L17.1,46h4.6l5.1-9.3c-0.6-0.1-1.1-0.4-1.5-0.7l-4.6,8.3h-1.4l2.1-7.3
		l3.3-1.6c-0.4-0.4-0.6-0.9-0.8-1.5l-2,0.9l-1.2,0.6l-0.2-0.2l-9.1-8.4c-0.3,0.5-0.6,0.9-1.1,1.3l9,8.3l-3.8,3.9l-5.3-1.8
		c-0.1,0.6-0.3,1.1-0.7,1.5L16.2,42.3z M31.5,34.3l4.9,0.9l3.5-5.2c-0.6-0.2-1.1-0.4-1.5-0.8l-2.8,4.2l-3.9-0.7c0,0.1,0,0.2,0,0.3
		C31.7,33.4,31.6,33.9,31.5,34.3z M52.1,16.6c1.2,0,2.1-1,2.1-2.1c0-1.2-1-2.1-2.1-2.1c-1.2,0-2.1,1-2.1,2.1
		C50,15.6,50.9,16.6,52.1,16.6z M28,2.1L13.1,6c0.4,0.4,0.6,1,0.7,1.5l14.4-3.7C28,3.4,28,2.9,28,2.5C28,2.4,28,2.2,28,2.1z
		 M34.6,16.1c0-2.5-2-4.5-4.5-4.5s-4.5,2-4.5,4.5s2,4.5,4.5,4.5S34.6,18.6,34.6,16.1z M29.3,29.3l0.8-7.3c0,0,0,0,0,0
		c-0.6,0-1.1-0.1-1.6-0.2L27.7,29c0,0,0.1,0,0.1,0C28.3,29,28.8,29.1,29.3,29.3z M18.6,20.9l6.5,9.2c0.4-0.4,0.9-0.7,1.4-0.9
		L20,19.9C19.6,20.3,19.2,20.6,18.6,20.9z"/>
	<g>
		<path class="st1" d="M72.7,27.6c-0.5-0.2-1.9-0.8-4.3-1.8C66,25,65.4,24.3,65.3,24c-0.1-0.1-0.1-0.3-0.1-0.4
			c0-0.9,0.5-1.7,1.5-2.2c0.7-0.4,1.4-0.5,2.2-0.5c1.3,0,2.3,0.4,3.1,1.2c0.4,0.5,0.6,1,0.6,1.5v0.6h3.5v-0.6c0-1.8-0.8-3.4-2.4-4.7
			c-1.4-1.1-3-1.6-4.9-1.6c-2.3,0-4.2,0.8-5.7,2.4c-1.1,1.2-1.6,2.5-1.6,3.9c0,2,1.3,3.7,4,5c0.5,0.2,1.9,0.8,4.3,1.7
			c2.4,0.9,3,1.6,3.1,1.9c0.1,0.1,0.1,0.3,0.1,0.4c0,0.9-0.5,1.6-1.6,2.1c-0.8,0.4-1.7,0.6-2.6,0.6c-1.5,0-2.6-0.4-3.5-1.2
			c-0.5-0.5-0.7-1-0.7-1.5l0-0.6h-3.5v0.6c0,1.7,0.8,3.3,2.4,4.5c1.5,1.2,3.3,1.8,5.4,1.8c2.4,0,4.4-0.8,6-2.3
			c1.2-1.2,1.8-2.5,1.8-3.9C76.7,30.6,75.3,28.9,72.7,27.6z"/>
		<g>
			<polygon class="st2" points="91.9,18.4 91.4,17.4 89.1,17.4 88.6,18.4 80.8,36.5 79.7,39 83.6,39 84,37.9 90.2,23.6 96.4,37.9 
				96.9,39 100.7,39 99.7,36.5 			"/>
			<path class="st2" d="M90.2,31.1c-1.4,0-2.6,1.2-2.6,2.6s1.2,2.6,2.6,2.6s2.6-1.2,2.6-2.6S91.7,31.1,90.2,31.1z"/>
		</g>
		<polygon class="st1" points="101.2,20.9 107.8,20.9 107.8,39 111.4,39 111.4,20.9 117.9,20.9 117.9,17.4 101.2,17.4 		"/>
		<path class="st1" d="M130.5,17.4c-2.6,0-4.8,1-6.6,3l0,0c-2,2.1-2.9,4.7-2.9,7.8c0,3,1,5.6,2.9,7.8c1.9,2,4.1,3,6.7,3
			c2.6,0,4.8-1,6.6-3c2-2.1,2.9-4.7,2.9-7.8c0-3-1-5.6-2.9-7.8C135.3,18.4,133.1,17.4,130.5,17.4z M136.6,28.2c0,2.2-0.7,3.9-2,5.4
			c-1.2,1.2-2.5,1.8-4,1.8c-1.8,0-3.2-0.8-4.4-2.3c-1.1-1.4-1.6-3.1-1.6-4.9c0-2.2,0.7-3.9,2-5.4c1.2-1.2,2.5-1.8,4-1.8
			c1.8,0,3.2,0.8,4.4,2.3C136,24.6,136.6,26.3,136.6,28.2z"/>
		<path class="st1" d="M156.5,27.6c-0.5-0.2-1.9-0.8-4.3-1.8c-2.3-0.9-2.9-1.5-3.1-1.8c-0.1-0.1-0.1-0.3-0.1-0.4
			c0-0.9,0.5-1.7,1.5-2.2c0.7-0.4,1.4-0.5,2.2-0.5c1.3,0,2.3,0.4,3.1,1.2c0.4,0.5,0.6,1,0.6,1.5v0.6h3.5v-0.6c0-1.8-0.8-3.4-2.4-4.7
			c-1.4-1.1-3-1.6-4.9-1.6c-2.3,0-4.2,0.8-5.7,2.4c-1.1,1.2-1.6,2.5-1.6,3.9c0,2,1.3,3.7,4,5c0.5,0.2,1.9,0.8,4.3,1.7
			c2.4,0.9,3,1.6,3.1,1.9c0.1,0.1,0.1,0.3,0.1,0.4c0,0.9-0.5,1.6-1.6,2.1c-0.8,0.4-1.7,0.6-2.6,0.6c-1.5,0-2.6-0.4-3.5-1.2
			c-0.5-0.5-0.7-1-0.7-1.5l0-0.6h-3.5v0.6c0,1.7,0.8,3.3,2.4,4.5c1.5,1.2,3.3,1.8,5.4,1.8c2.4,0,4.4-0.8,6-2.3
			c1.2-1.2,1.8-2.5,1.8-3.9C160.4,30.6,159.1,28.9,156.5,27.6z"/>
		<polygon class="st1" points="179,26.4 169.9,26.4 169.9,17.4 166.4,17.4 166.4,39 169.9,39 169.9,29.9 179,29.9 179,39 182.5,39 
			182.5,17.4 179,17.4 		"/>
		<rect x="191" y="17.4" class="st1" width="3.5" height="21.6"/>
		<g>
			<rect x="226.3" y="17.4" class="st2" width="3.5" height="21.6"/>
			<g>
				<polygon class="st2" points="212.3,18.4 211.8,17.4 209.5,17.4 209,18.4 201.2,36.5 200.2,39 204,39 204.5,37.9 210.7,23.6 
					216.9,37.9 217.3,39 221.2,39 220.1,36.5 				"/>
				<path class="st2" d="M210.7,31.1c-1.4,0-2.6,1.2-2.6,2.6s1.2,2.6,2.6,2.6s2.6-1.2,2.6-2.6S212.1,31.1,210.7,31.1z"/>
			</g>
		</g>
		<g>
			<polygon class="st2" points="91.9,18.4 91.4,17.4 89.1,17.4 88.6,18.4 80.8,36.5 79.7,39 83.6,39 84,37.9 90.2,23.6 96.4,37.9 
				96.9,39 100.7,39 99.7,36.5 			"/>
			<path class="st2" d="M90.2,31.1c-1.4,0-2.6,1.2-2.6,2.6s1.2,2.6,2.6,2.6s2.6-1.2,2.6-2.6S91.7,31.1,90.2,31.1z"/>
		</g>
	</g>
</g>
</svg>
