<svg width="26" height="61" viewBox="0 0 26 61" fill="none" xmlns="http://www.w3.org/2000/svg">
<path d="M15.572 48.8249H10.035C5.065 48.8249 1 44.7599 1 39.7909V20.7039C1 15.7349 5.066 11.6699 10.035 11.6699H15.571C20.541 11.6699 24.606 15.7349 24.606 20.7039V39.7909C24.606 44.7599 20.54 48.8249 15.571 48.8249H15.572Z" stroke="#9D9D9D" stroke-width="2" stroke-miterlimit="10" stroke-linecap="round" stroke-linejoin="round"/>
<path d="M18.0726 54.34L12.8566 59.556M7.59863 54.34L12.8146 59.556M7.59863 6.216L12.8146 1M18.0726 6.216L12.8566 1M12.8866 26.479H12.7186C12.1806 26.4777 11.6651 26.2634 11.2847 25.883C10.9042 25.5026 10.69 24.987 10.6886 24.449V18.404C10.6886 17.288 11.6026 16.375 12.7186 16.375H12.8866C14.0026 16.375 14.9166 17.288 14.9166 18.405V24.451C14.9166 25.567 14.0026 26.481 12.8866 26.481V26.479Z" stroke="#9D9D9D" stroke-width="2" stroke-miterlimit="10" stroke-linecap="round" stroke-linejoin="round"/>
</svg>
