<svg width="222" height="32" viewBox="0 0 222 32" fill="none" xmlns="http://www.w3.org/2000/svg">
<path d="M15.2429 15.1053C14.582 14.7597 12.7318 13.9205 9.55984 12.5383C6.52008 11.2054 5.72709 10.3169 5.50682 9.87257C5.41871 9.67511 5.37466 9.47764 5.37466 9.32954C5.37466 7.94731 6.03546 6.86127 7.40116 6.07142C8.28225 5.5284 9.25145 5.28157 10.2647 5.28157C12.0269 5.28157 13.3485 5.87396 14.3177 7.05873C14.8464 7.74985 15.1107 8.44096 15.1107 9.28018V10.1194H19.7805V9.28018C19.7805 6.56508 18.7232 4.2449 16.6526 2.41838C14.8464 0.838685 12.6877 0.0488281 10.2647 0.0488281C7.22494 0.0488281 4.71385 1.2336 2.8195 3.50441C1.45381 5.2322 0.748932 7.15746 0.748932 9.28018C0.748932 12.2421 2.51111 14.7104 5.94736 16.6356C6.56412 16.9812 8.41441 17.8204 11.5863 19.2026C14.6702 20.5849 15.5072 21.5228 15.7275 22.0165C15.8156 22.2139 15.8596 22.4114 15.8596 22.6089C15.8596 23.8924 15.1547 24.929 13.7009 25.7682C12.6436 26.3606 11.4982 26.6568 10.2647 26.6568C8.3263 26.6568 6.78439 26.0644 5.63897 24.8797C5.02221 24.1886 4.71382 23.4481 4.66977 22.6089V21.819H0V22.6582C0 25.2252 1.05731 27.4467 3.08382 29.2732C5.06627 31.001 7.48927 31.8896 10.2207 31.8896C13.3926 31.8896 16.0358 30.7541 18.1064 28.434C19.6483 26.7062 20.4413 24.7316 20.4413 22.6089C20.4413 19.5482 18.6791 17.0305 15.2429 15.1053Z" fill="white"/>
<path d="M40.397 1.57969L39.7802 0H36.7845L36.1237 1.57969L25.859 28.1383L24.4492 31.7914H29.5155L30.1323 30.2117L38.2824 9.18196L46.3884 30.2117L47.0492 31.7914H52.0714L50.7057 28.1383L40.397 1.57969Z" fill="#0096FF"/>
<path d="M38.2828 20.2891C36.3885 20.2891 34.8906 22.0169 34.8906 24.0902C34.8906 26.1636 36.4325 27.8914 38.2828 27.8914C40.1772 27.8914 41.675 26.1636 41.675 24.0902C41.675 22.0169 40.1772 20.2891 38.2828 20.2891Z" fill="#0096FF"/>
<path d="M52.6455 5.23273H61.3683V31.7914H66.0381V5.23273H74.6728V0H52.6455V5.23273Z" fill="white"/>
<path d="M91.1933 0C87.8452 0 84.8935 1.48096 82.4705 4.44289C79.9154 7.55292 78.5938 11.4034 78.5938 15.8957C78.5938 20.3879 79.8713 24.1891 82.4265 27.2991C84.8935 30.2117 87.8452 31.742 91.1933 31.7914C94.5415 31.7914 97.4931 30.3104 99.9161 27.3485C102.471 24.2384 103.793 20.3879 103.793 15.8957C103.793 11.4034 102.515 7.60227 99.9602 4.49225C97.5372 1.53032 94.5855 0.0493655 91.1933 0ZM99.1672 15.8957C99.1672 19.1044 98.2861 21.7208 96.4799 23.8435C94.938 25.6207 93.2198 26.5092 91.1933 26.5586C88.8584 26.5586 86.9641 25.4726 85.3781 23.1524C83.9684 21.0791 83.2195 18.6108 83.2195 15.8463C83.2195 12.6375 84.1006 10.0212 85.9068 7.89847C87.4487 6.12132 89.1668 5.23274 91.1933 5.18337C93.5282 5.18337 95.4226 6.26941 97.0085 8.58959C98.4623 10.7123 99.1672 13.1312 99.1672 15.8957Z" fill="white"/>
<path d="M125.291 15.1053C124.63 14.7597 122.779 13.9205 119.608 12.5383C116.568 11.2054 115.775 10.3169 115.555 9.87257C115.466 9.67511 115.422 9.47764 115.422 9.32954C115.422 7.94731 116.083 6.86127 117.449 6.07142C118.33 5.5284 119.299 5.28157 120.312 5.28157C122.075 5.28157 123.396 5.87396 124.365 7.05873C124.894 7.74985 125.158 8.44096 125.158 9.28018V10.1194H129.828V9.28018C129.828 6.56508 128.771 4.2449 126.7 2.41838C124.894 0.838685 122.735 0.0488281 120.312 0.0488281C117.273 0.0488281 114.762 1.2336 112.867 3.50441C111.502 5.2322 110.797 7.15746 110.797 9.28018C110.797 12.2421 112.559 14.7104 115.995 16.6356C116.612 16.9812 118.462 17.8204 121.634 19.2026C124.718 20.5849 125.555 21.5228 125.775 22.0165C125.863 22.2139 125.907 22.4114 125.907 22.6089C125.907 23.8924 125.202 24.929 123.749 25.7682C122.691 26.3606 121.546 26.6568 120.312 26.6568C118.374 26.6568 116.832 26.0644 115.687 24.8797C115.07 24.1886 114.762 23.4481 114.718 22.6089V21.819H110.092V22.6582C110.092 25.2252 111.149 27.4467 113.176 29.2732C115.158 31.001 117.581 31.8896 120.312 31.8896C123.484 31.8896 126.128 30.7541 128.198 28.434C129.74 26.7062 130.533 24.7316 130.533 22.6089C130.489 19.5482 128.727 17.0305 125.291 15.1053Z" fill="white"/>
<path d="M154.896 13.2793H142.957V0H138.287V31.7914H142.957V18.512H154.896V31.7914H159.521V0H154.896V13.2793Z" fill="white"/>
<path d="M175.293 0H170.623V31.7914H175.293V0Z" fill="white"/>
<path d="M221.727 0H217.058V31.7914H221.727V0Z" fill="#0096FF"/>
<path d="M198.642 1.57969L197.981 0H194.986L194.369 1.57969L184.06 28.1383L182.694 31.7914H187.717L188.377 30.2117L196.483 9.18196L204.633 30.2117L205.25 31.7914H210.317L208.907 28.1383L198.642 1.57969Z" fill="#0096FF"/>
<path d="M196.484 20.2891C194.59 20.2891 193.092 22.0169 193.092 24.0902C193.092 26.1636 194.634 27.8914 196.484 27.8914C198.378 27.8914 199.876 26.1636 199.876 24.0902C199.876 22.0169 198.378 20.2891 196.484 20.2891Z" fill="#0096FF"/>
<path d="M40.397 1.57969L39.7802 0H36.7845L36.1237 1.57969L25.859 28.1383L24.4492 31.7914H29.5155L30.1323 30.2117L38.2824 9.18196L46.3884 30.2117L47.0492 31.7914H52.0714L50.7057 28.1383L40.397 1.57969Z" fill="#0096FF"/>
</svg>
