<svg width="90" height="60" viewBox="0 0 90 60" fill="none" xmlns="http://www.w3.org/2000/svg">
<path d="M70.7402 35.1484V24.789H52.7134L65.7541 9.96426H70.7402V2.99842L88 19.0734L70.7402 35.1484Z" stroke="white" stroke-width="2"/>
<path d="M60.7324 9.60584L48.279 25.3672H44.7765L56.8407 9.60584H60.7324Z" fill="white"/>
<path d="M52.7534 9.60584L40.3 25.3672H36.7975L48.8617 9.60584H52.7534Z" fill="white"/>
<path d="M44.9697 9.60584L32.5163 25.3672H29.0138L41.078 9.60584H44.9697Z" fill="white"/>
<path d="M19.2598 25.3359L19.2598 35.6954L37.2866 35.6954L24.2459 50.5201L19.2598 50.5201L19.2598 57.486L2 41.4109L19.2598 25.3359Z" stroke="white" stroke-width="2"/>
<path d="M29.2671 50.8785L41.7205 35.1172L45.223 35.1172L33.1588 50.8785L29.2671 50.8785Z" fill="white"/>
<path d="M37.2461 50.8785L49.6995 35.1172L53.202 35.1172L41.1378 50.8785L37.2461 50.8785Z" fill="white"/>
<path d="M45.0298 50.8785L57.4832 35.1172L60.9857 35.1172L48.9215 50.8785L45.0298 50.8785Z" fill="white"/>
</svg>
