<svg width="77" height="68" viewBox="0 0 77 68" fill="none" xmlns="http://www.w3.org/2000/svg">
<mask id="path-1-inside-1_1189_13947" fill="white">
<path d="M58.0018 29.2944C58.0018 29.9801 57.4458 30.536 56.7599 30.536H42.562C41.8761 30.536 41.32 29.9801 41.32 29.2944C41.32 28.6088 41.8761 28.0528 42.562 28.0528H56.7599C57.4459 28.0528 58.0018 28.6086 58.0018 29.2944ZM50.3259 37.4637H44.919C44.2332 37.4637 43.6771 38.0196 43.6771 38.7053C43.6771 39.3909 44.2332 39.9468 44.919 39.9468H50.3259C51.0118 39.9468 51.5679 39.3909 51.5679 38.7053C51.5679 38.0196 51.0118 37.4637 50.3259 37.4637ZM44.919 49.3577H50.1194C50.8053 49.3577 51.3614 48.8018 51.3614 48.1161C51.3614 47.4305 50.8053 46.8745 50.1194 46.8745H44.919C44.2332 46.8745 43.6771 47.4305 43.6771 48.1161C43.6771 48.8018 44.233 49.3577 44.919 49.3577ZM50.2812 56.2854H44.9189C44.233 56.2854 43.6769 56.8413 43.6769 57.527C43.6769 58.2126 44.233 58.7686 44.9189 58.7686H50.2812C50.9671 58.7686 51.5231 58.2126 51.5231 57.527C51.5231 56.8413 50.9672 56.2854 50.2812 56.2854ZM35.4969 19.8836C35.4969 20.5692 36.053 21.1251 36.7389 21.1251H56.7599C57.4458 21.1251 58.0018 20.5692 58.0018 19.8836C58.0018 19.1979 57.4458 18.642 56.7599 18.642H36.7389C36.053 18.642 35.4969 19.1979 35.4969 19.8836ZM21.6584 11.7143H44.8167C45.5026 11.7143 46.0586 11.1584 46.0586 10.4727C46.0586 9.78705 45.5026 9.23113 44.8167 9.23113H21.6584C20.9725 9.23113 20.4164 9.78705 20.4164 10.4727C20.4164 11.1584 20.9725 11.7143 21.6584 11.7143ZM31.1565 48.8605C32.966 48.8605 34.4383 50.3322 34.4383 52.1413C34.4383 53.9505 32.9662 55.4223 31.1565 55.4223C29.3469 55.4223 27.8747 53.9505 27.8747 52.1413C27.8747 50.3322 29.3469 48.8605 31.1565 48.8605ZM30.3584 52.1413C30.3584 52.5812 30.7164 52.9392 31.1564 52.9392C31.5963 52.9392 31.9543 52.5813 31.9543 52.1413C31.9543 51.7013 31.5963 51.3436 31.1564 51.3436C30.7164 51.3436 30.3584 51.7015 30.3584 52.1413ZM76.9998 41.7377C76.9998 42.7894 76.5877 43.7467 75.9163 44.4566C76.5877 45.1664 76.9998 46.1237 76.9998 47.1755V49.1716C76.9998 50.2234 76.5877 51.1806 75.9163 51.8905C76.5877 52.6004 76.9998 53.5576 76.9998 54.6094V56.6056C76.9998 57.6573 76.5877 58.6146 75.9163 59.3245C76.5877 60.0343 76.9998 60.9916 76.9998 62.0434V64.0395C76.9998 66.2233 75.2226 68 73.0382 68H5.35785C2.40361 67.9998 0 65.5969 0 62.6434V33.4096C0 30.4561 2.40345 28.0533 5.35785 28.0533H12.6853V2.56246C12.6853 1.14955 13.8351 0 15.2485 0H55.7516C56.446 0 57.0727 0.25949 57.5639 0.750379L64.9826 8.16679C65.4738 8.65799 65.7332 9.28437 65.7332 9.97872V35.7812H73.0384C75.2228 35.7812 77 37.5579 77 39.7417L76.9998 41.7377ZM57.5408 4.2389V8.18992H61.4929L57.5408 4.2389ZM15.1691 28.0533H16.6765C16.6228 27.6208 16.5972 27.1811 16.6009 26.7363C16.6343 22.6638 19.1183 18.7793 23.4626 15.9364L22.6078 14.4563C22.3666 14.0387 22.3893 13.5192 22.6656 13.1241C22.9421 12.729 23.4219 12.5292 23.8976 12.6126L34.1654 14.4093C34.5413 14.4751 34.866 14.7099 35.0461 15.0462C35.2263 15.3825 35.2417 15.7829 35.0882 16.132L31.0977 25.2051C30.9094 25.6335 30.4961 25.9197 30.0287 25.9451C29.561 25.9704 29.1193 25.7314 28.8853 25.3262L28.0008 23.7944C26.1817 24.9442 24.5765 26.2827 23.6823 28.0533H37.9049C38.5907 28.0533 39.1468 28.6092 39.1468 29.2949V36.2828H41.8143C42.5002 36.2828 43.0563 36.8387 43.0563 37.5244V65.5165H52.2697C52.0853 65.0596 51.9827 64.5613 51.9827 64.0392V62.0431C51.9827 60.9913 52.3948 60.034 53.0662 59.3242C52.3948 58.6143 51.9827 57.657 51.9827 56.6053V54.6091C51.9827 53.5573 52.3948 52.6001 53.0662 51.8902C52.3948 51.1803 51.9827 50.2231 51.9827 49.1713V47.1752C51.9827 46.1234 52.3948 45.1661 53.0662 44.4563C52.3948 43.7464 51.9827 42.7891 51.9827 41.7374V39.7412C51.9827 37.5574 53.7599 35.7807 55.9443 35.7807H63.2493V10.6731H56.9595C55.9104 10.6731 55.0571 9.8198 55.0571 8.77113V2.483H15.2483C15.2067 2.483 15.169 2.52087 15.169 2.56231L15.1691 28.0533ZM40.5721 47.6813H30.96C28.5 47.6813 26.4987 49.6821 26.4987 52.1413C26.4987 54.6006 28.5 56.6014 30.96 56.6014H40.5721V47.6813ZM25.7628 17.4363C21.5474 19.8693 19.1133 23.2664 19.0846 26.7565C19.0716 28.346 19.5595 29.8508 20.4525 31.1026C20.4848 29.0891 21.0944 27.2464 22.2783 25.5975C23.7846 23.4992 25.9263 22.0975 27.8226 21.003C28.1077 20.8383 28.4469 20.794 28.7649 20.879C29.0831 20.9642 29.3543 21.1723 29.519 21.4576L29.8104 21.9621L32.1766 16.5822L26.0882 15.5168L26.2174 15.7403C26.5603 16.3342 26.3568 17.0934 25.7628 17.4363ZM2.48387 33.4096C2.48387 34.9939 3.77315 36.2828 5.35785 36.2828H36.6626V30.5365H22.9685C22.8716 31.5542 22.9751 32.6883 23.3316 33.9646C23.4682 34.4541 23.2928 34.9774 22.8885 35.2857C22.6671 35.4544 22.4017 35.54 22.1353 35.54C21.9151 35.54 21.6942 35.4817 21.4969 35.3634C19.5629 34.2044 18.1226 32.5101 17.3216 30.5365H5.35785C3.77315 30.5365 2.48387 31.8254 2.48387 33.4096ZM5.35785 65.5167H37.2262H40.5721V59.0847H30.96C27.1305 59.0847 24.0148 55.97 24.0148 52.1415C24.0148 48.3131 27.1303 45.1983 30.96 45.1983H40.5721V38.7659H5.35785C4.30081 38.7659 3.31503 38.4571 2.48387 37.9266V62.6434C2.48387 64.2278 3.77315 65.5167 5.35785 65.5167ZM74.516 62.0432C74.516 61.2286 73.8531 60.5659 73.0382 60.5659H55.9441C55.1292 60.5659 54.4664 61.2286 54.4664 62.0432V64.0394C54.4664 64.8535 55.1285 65.5158 55.9426 65.5167H73.0381C73.8529 65.5167 74.5158 64.854 74.5158 64.0394L74.516 62.0432ZM74.516 54.6093C74.516 53.7946 73.8531 53.1319 73.0382 53.1319H55.9441C55.1292 53.1319 54.4664 53.7946 54.4664 54.6093V56.6054C54.4664 57.4201 55.1292 58.0827 55.9441 58.0827H73.0382C73.8531 58.0827 74.516 57.4201 74.516 56.6054V54.6093ZM74.516 47.1755C74.516 46.3608 73.8531 45.6982 73.0382 45.6982H55.9441C55.1292 45.6982 54.4664 46.3608 54.4664 47.1755V49.1716C54.4664 49.9863 55.1292 50.6489 55.9441 50.6489H73.0382C73.8531 50.6489 74.516 49.9863 74.516 49.1716V47.1755ZM74.516 39.7415C74.516 38.9269 73.8531 38.2642 73.0382 38.2642H55.9441C55.1292 38.2642 54.4664 38.9269 54.4664 39.7415V41.7377C54.4664 42.5523 55.1292 43.215 55.9441 43.215H73.0382C73.8531 43.215 74.516 42.5523 74.516 41.7377V39.7415Z"/>
</mask>
<path d="M58.0018 29.2944C58.0018 29.9801 57.4458 30.536 56.7599 30.536H42.562C41.8761 30.536 41.32 29.9801 41.32 29.2944C41.32 28.6088 41.8761 28.0528 42.562 28.0528H56.7599C57.4459 28.0528 58.0018 28.6086 58.0018 29.2944ZM50.3259 37.4637H44.919C44.2332 37.4637 43.6771 38.0196 43.6771 38.7053C43.6771 39.3909 44.2332 39.9468 44.919 39.9468H50.3259C51.0118 39.9468 51.5679 39.3909 51.5679 38.7053C51.5679 38.0196 51.0118 37.4637 50.3259 37.4637ZM44.919 49.3577H50.1194C50.8053 49.3577 51.3614 48.8018 51.3614 48.1161C51.3614 47.4305 50.8053 46.8745 50.1194 46.8745H44.919C44.2332 46.8745 43.6771 47.4305 43.6771 48.1161C43.6771 48.8018 44.233 49.3577 44.919 49.3577ZM50.2812 56.2854H44.9189C44.233 56.2854 43.6769 56.8413 43.6769 57.527C43.6769 58.2126 44.233 58.7686 44.9189 58.7686H50.2812C50.9671 58.7686 51.5231 58.2126 51.5231 57.527C51.5231 56.8413 50.9672 56.2854 50.2812 56.2854ZM35.4969 19.8836C35.4969 20.5692 36.053 21.1251 36.7389 21.1251H56.7599C57.4458 21.1251 58.0018 20.5692 58.0018 19.8836C58.0018 19.1979 57.4458 18.642 56.7599 18.642H36.7389C36.053 18.642 35.4969 19.1979 35.4969 19.8836ZM21.6584 11.7143H44.8167C45.5026 11.7143 46.0586 11.1584 46.0586 10.4727C46.0586 9.78705 45.5026 9.23113 44.8167 9.23113H21.6584C20.9725 9.23113 20.4164 9.78705 20.4164 10.4727C20.4164 11.1584 20.9725 11.7143 21.6584 11.7143ZM31.1565 48.8605C32.966 48.8605 34.4383 50.3322 34.4383 52.1413C34.4383 53.9505 32.9662 55.4223 31.1565 55.4223C29.3469 55.4223 27.8747 53.9505 27.8747 52.1413C27.8747 50.3322 29.3469 48.8605 31.1565 48.8605ZM30.3584 52.1413C30.3584 52.5812 30.7164 52.9392 31.1564 52.9392C31.5963 52.9392 31.9543 52.5813 31.9543 52.1413C31.9543 51.7013 31.5963 51.3436 31.1564 51.3436C30.7164 51.3436 30.3584 51.7015 30.3584 52.1413ZM76.9998 41.7377C76.9998 42.7894 76.5877 43.7467 75.9163 44.4566C76.5877 45.1664 76.9998 46.1237 76.9998 47.1755V49.1716C76.9998 50.2234 76.5877 51.1806 75.9163 51.8905C76.5877 52.6004 76.9998 53.5576 76.9998 54.6094V56.6056C76.9998 57.6573 76.5877 58.6146 75.9163 59.3245C76.5877 60.0343 76.9998 60.9916 76.9998 62.0434V64.0395C76.9998 66.2233 75.2226 68 73.0382 68H5.35785C2.40361 67.9998 0 65.5969 0 62.6434V33.4096C0 30.4561 2.40345 28.0533 5.35785 28.0533H12.6853V2.56246C12.6853 1.14955 13.8351 0 15.2485 0H55.7516C56.446 0 57.0727 0.25949 57.5639 0.750379L64.9826 8.16679C65.4738 8.65799 65.7332 9.28437 65.7332 9.97872V35.7812H73.0384C75.2228 35.7812 77 37.5579 77 39.7417L76.9998 41.7377ZM57.5408 4.2389V8.18992H61.4929L57.5408 4.2389ZM15.1691 28.0533H16.6765C16.6228 27.6208 16.5972 27.1811 16.6009 26.7363C16.6343 22.6638 19.1183 18.7793 23.4626 15.9364L22.6078 14.4563C22.3666 14.0387 22.3893 13.5192 22.6656 13.1241C22.9421 12.729 23.4219 12.5292 23.8976 12.6126L34.1654 14.4093C34.5413 14.4751 34.866 14.7099 35.0461 15.0462C35.2263 15.3825 35.2417 15.7829 35.0882 16.132L31.0977 25.2051C30.9094 25.6335 30.4961 25.9197 30.0287 25.9451C29.561 25.9704 29.1193 25.7314 28.8853 25.3262L28.0008 23.7944C26.1817 24.9442 24.5765 26.2827 23.6823 28.0533H37.9049C38.5907 28.0533 39.1468 28.6092 39.1468 29.2949V36.2828H41.8143C42.5002 36.2828 43.0563 36.8387 43.0563 37.5244V65.5165H52.2697C52.0853 65.0596 51.9827 64.5613 51.9827 64.0392V62.0431C51.9827 60.9913 52.3948 60.034 53.0662 59.3242C52.3948 58.6143 51.9827 57.657 51.9827 56.6053V54.6091C51.9827 53.5573 52.3948 52.6001 53.0662 51.8902C52.3948 51.1803 51.9827 50.2231 51.9827 49.1713V47.1752C51.9827 46.1234 52.3948 45.1661 53.0662 44.4563C52.3948 43.7464 51.9827 42.7891 51.9827 41.7374V39.7412C51.9827 37.5574 53.7599 35.7807 55.9443 35.7807H63.2493V10.6731H56.9595C55.9104 10.6731 55.0571 9.8198 55.0571 8.77113V2.483H15.2483C15.2067 2.483 15.169 2.52087 15.169 2.56231L15.1691 28.0533ZM40.5721 47.6813H30.96C28.5 47.6813 26.4987 49.6821 26.4987 52.1413C26.4987 54.6006 28.5 56.6014 30.96 56.6014H40.5721V47.6813ZM25.7628 17.4363C21.5474 19.8693 19.1133 23.2664 19.0846 26.7565C19.0716 28.346 19.5595 29.8508 20.4525 31.1026C20.4848 29.0891 21.0944 27.2464 22.2783 25.5975C23.7846 23.4992 25.9263 22.0975 27.8226 21.003C28.1077 20.8383 28.4469 20.794 28.7649 20.879C29.0831 20.9642 29.3543 21.1723 29.519 21.4576L29.8104 21.9621L32.1766 16.5822L26.0882 15.5168L26.2174 15.7403C26.5603 16.3342 26.3568 17.0934 25.7628 17.4363ZM2.48387 33.4096C2.48387 34.9939 3.77315 36.2828 5.35785 36.2828H36.6626V30.5365H22.9685C22.8716 31.5542 22.9751 32.6883 23.3316 33.9646C23.4682 34.4541 23.2928 34.9774 22.8885 35.2857C22.6671 35.4544 22.4017 35.54 22.1353 35.54C21.9151 35.54 21.6942 35.4817 21.4969 35.3634C19.5629 34.2044 18.1226 32.5101 17.3216 30.5365H5.35785C3.77315 30.5365 2.48387 31.8254 2.48387 33.4096ZM5.35785 65.5167H37.2262H40.5721V59.0847H30.96C27.1305 59.0847 24.0148 55.97 24.0148 52.1415C24.0148 48.3131 27.1303 45.1983 30.96 45.1983H40.5721V38.7659H5.35785C4.30081 38.7659 3.31503 38.4571 2.48387 37.9266V62.6434C2.48387 64.2278 3.77315 65.5167 5.35785 65.5167ZM74.516 62.0432C74.516 61.2286 73.8531 60.5659 73.0382 60.5659H55.9441C55.1292 60.5659 54.4664 61.2286 54.4664 62.0432V64.0394C54.4664 64.8535 55.1285 65.5158 55.9426 65.5167H73.0381C73.8529 65.5167 74.5158 64.854 74.5158 64.0394L74.516 62.0432ZM74.516 54.6093C74.516 53.7946 73.8531 53.1319 73.0382 53.1319H55.9441C55.1292 53.1319 54.4664 53.7946 54.4664 54.6093V56.6054C54.4664 57.4201 55.1292 58.0827 55.9441 58.0827H73.0382C73.8531 58.0827 74.516 57.4201 74.516 56.6054V54.6093ZM74.516 47.1755C74.516 46.3608 73.8531 45.6982 73.0382 45.6982H55.9441C55.1292 45.6982 54.4664 46.3608 54.4664 47.1755V49.1716C54.4664 49.9863 55.1292 50.6489 55.9441 50.6489H73.0382C73.8531 50.6489 74.516 49.9863 74.516 49.1716V47.1755ZM74.516 39.7415C74.516 38.9269 73.8531 38.2642 73.0382 38.2642H55.9441C55.1292 38.2642 54.4664 38.9269 54.4664 39.7415V41.7377C54.4664 42.5523 55.1292 43.215 55.9441 43.215H73.0382C73.8531 43.215 74.516 42.5523 74.516 41.7377V39.7415Z" fill="white" stroke="white" stroke-width="2" mask="url(#path-1-inside-1_1189_13947)"/>
</svg>
