<svg width="92" height="92" viewBox="0 0 92 92" fill="none" xmlns="http://www.w3.org/2000/svg">
<path d="M84.4492 0C84.121 0 83.1745 0 83.0117 0H28.7461C27.7537 0 26.9492 0.804632 26.9492 1.79686C26.9492 2.78908 27.7537 3.59371 28.7461 3.59371H78.0243C77.3138 4.74424 76.9027 6.09799 76.9027 7.54662V31.0822C76.9027 32.0744 77.7072 32.8791 78.6996 32.8791C79.692 32.8791 80.4964 32.0744 80.4964 31.0822V25.5146H90.1991C91.1915 25.5146 91.9959 24.71 91.9959 23.7178V7.54662C91.9958 3.38546 88.6105 0 84.4492 0ZM88.4022 21.9209H80.4962V7.54662C80.4962 5.36685 82.2696 3.59371 84.4492 3.59371C86.6287 3.59371 88.4021 5.36703 88.4021 7.54662L88.4022 21.9209Z" fill="white"/>
<path d="M90.0362 73.2163L78.2991 61.4792C79.6536 58.7167 80.4155 55.6134 80.4155 52.335C80.4155 40.8421 71.0654 31.4922 59.5727 31.4922C48.08 31.4922 38.7299 40.8421 38.7299 52.335C38.7299 54.9625 39.2199 57.4776 40.1113 59.7952L38.0081 61.8984L29.3575 53.2476C29.0205 52.9107 28.5634 52.7213 28.0869 52.7213C27.6104 52.7213 27.1532 52.9107 26.8163 53.2476L24.794 55.27V38.8625C24.794 37.8703 23.9895 37.0657 22.9971 37.0657C22.0047 37.0657 21.2003 37.8703 21.2003 38.8625V58.8637L4.95399 75.1101C4.25232 75.8118 4.25232 76.9496 4.95399 77.6514C5.30491 78.0022 5.76473 78.1777 6.22455 78.1777C6.68436 78.1777 7.14436 78.0022 7.4951 77.6514L21.2003 63.9463V76.8951H13.2955C12.3031 76.8951 11.4987 77.6998 11.4987 78.692V84.4418C11.4987 88.6029 14.884 91.9884 19.0453 91.9884H72.9506C77.112 91.9884 80.4974 88.6029 80.4974 84.4414V82.8988C81.7545 84.119 83.4116 84.79 85.1813 84.79C85.1924 84.79 85.2037 84.7898 85.2151 84.7898C87.0249 84.781 88.7249 84.0727 90.0024 82.7951C92.6524 80.1446 92.6677 75.8478 90.0362 73.2163ZM59.5725 35.0857C69.0838 35.0857 76.8218 42.8237 76.8218 52.335C76.8218 61.8463 69.0838 69.5843 59.5725 69.5843C53.0413 69.5843 47.3465 65.9356 44.4191 60.5696L54.8031 50.1856V54.2621C54.8031 55.2544 55.6075 56.059 56.5999 56.059C57.5924 56.059 58.3968 55.2544 58.3968 54.2621V45.6387C58.3968 44.6464 57.5924 43.8418 56.5999 43.8418H47.9763C46.9839 43.8418 46.1794 44.6464 46.1794 45.6387C46.1794 46.6309 46.9839 47.4355 47.9763 47.4355H52.4711L42.9525 56.9542C42.5431 55.4834 42.3234 53.9346 42.3234 52.3352C42.3232 42.8235 50.0612 35.0857 59.5725 35.0857ZM19.0451 88.3941C16.8653 88.3939 15.0922 86.6206 15.0922 84.441V80.4881H65.4036V82.6444C65.4036 82.7031 65.4069 82.7612 65.4125 82.8185C65.4069 82.8758 65.4036 82.9338 65.4036 82.9926V84.441C65.4036 85.8898 65.8148 87.2438 66.5254 88.3943L19.0451 88.3941ZM76.9037 84.4405C76.9037 86.6206 75.1302 88.3939 72.9506 88.3939C70.7707 88.3939 68.9974 86.6204 68.9974 84.4407V82.9922C68.9974 82.9335 68.9941 82.8754 68.9886 82.8181C68.9941 82.7608 68.9974 82.7028 68.9974 82.644V78.6911C68.9974 77.6989 68.1929 76.8942 67.2005 76.8942H24.794V60.3518L28.0867 57.0591L36.7373 65.7099C37.0742 66.0468 37.5314 66.2362 38.0079 66.2362C38.4844 66.2362 38.9415 66.0468 39.2784 65.7099L41.7908 63.1975C45.4582 69.1789 52.057 73.1776 59.5725 73.1776C62.835 73.1776 65.9247 72.4233 68.677 71.0811L76.9037 79.3078V84.4405ZM87.4613 80.2533C86.8579 80.8567 86.0538 81.1914 85.1975 81.1954C85.1922 81.1956 85.1869 81.1956 85.1815 81.1956C84.3377 81.1956 83.551 80.8732 82.965 80.2871L71.8468 69.1688C73.5801 67.9017 75.1108 66.3738 76.3815 64.6435L87.4951 75.757C88.7254 76.9875 88.7103 79.0047 87.4613 80.2533Z" fill="white"/>
<path d="M70.9467 50.5469C69.9543 50.5469 69.1499 51.3515 69.1499 52.3437C69.1499 57.6258 64.8525 61.9231 59.5703 61.9231C58.5779 61.9231 57.7734 62.7276 57.7734 63.72C57.7734 64.7122 58.5779 65.5168 59.5703 65.5168C66.8341 65.5168 72.7436 59.6073 72.7436 52.3437C72.7436 51.3515 71.9391 50.5469 70.9467 50.5469Z" fill="white"/>
<path d="M46.0207 30.8977H44.3807V18.8591C44.3807 17.8669 43.5763 17.0622 42.5839 17.0622H34.3323C33.3399 17.0622 32.5355 17.8669 32.5355 18.8591V30.8977H29.6469V11.4922C29.6469 10.4999 28.8424 9.69531 27.85 9.69531H19.944C18.9516 9.69531 18.1472 10.4999 18.1472 11.4922V30.8975H15.2727V22.9915C15.2727 21.9993 14.4683 21.1947 13.4759 21.1947H5.57007C4.57767 21.1947 3.77322 21.9993 3.77322 22.9915V30.8975H1.79686C0.804452 30.8975 0 31.7021 0 32.6944C0 33.6866 0.804452 34.4912 1.79686 34.4912H46.0209C47.0133 34.4912 47.8178 33.6866 47.8178 32.6944C47.8176 31.7021 47.0131 30.8977 46.0207 30.8977ZM11.6792 30.8977H7.36693V24.7885H11.6792V30.8977ZM26.0535 30.8977H21.7412V13.289H26.0535V30.8977ZM40.7872 30.8977H36.1294V20.656H40.7872V30.8977Z" fill="white"/>
<path d="M60.635 9.69531H46.7168C45.7244 9.69531 44.9199 10.4999 44.9199 11.4922C44.9199 12.4844 45.7244 13.289 46.7168 13.289H60.635C61.6274 13.289 62.4319 12.4844 62.4319 11.4922C62.4317 10.4999 61.6274 9.69531 60.635 9.69531Z" fill="white"/>
<path d="M70.7938 10.2218C70.4596 9.88758 69.996 9.69531 69.5234 9.69531C69.0508 9.69531 68.5873 9.8874 68.253 10.2218C67.9188 10.5562 67.7266 11.0196 67.7266 11.4922C67.7266 11.9647 67.9188 12.4283 68.253 12.7624C68.5873 13.0966 69.0508 13.289 69.5234 13.289C69.996 13.289 70.4596 13.0968 70.7938 12.7624C71.128 12.4283 71.3203 11.9647 71.3203 11.4922C71.3203 11.0198 71.128 10.5562 70.7938 10.2218Z" fill="white"/>
<path d="M53.6748 17.6016H50.7285C49.7361 17.6016 48.9316 18.4062 48.9316 19.3984C48.9316 20.3906 49.7361 21.1953 50.7285 21.1953H53.6748C54.6672 21.1953 55.4717 20.3906 55.4717 19.3984C55.4717 18.4062 54.6672 17.6016 53.6748 17.6016Z" fill="white"/>
<path d="M69.5227 17.6016H60.6347C59.6423 17.6016 58.8379 18.4062 58.8379 19.3984C58.8379 20.3906 59.6423 21.1953 60.6347 21.1953H69.5227C70.5151 21.1953 71.3196 20.3906 71.3196 19.3984C71.3196 18.4062 70.5151 17.6016 69.5227 17.6016Z" fill="white"/>
<path d="M3.06919 79.5423C2.73497 79.2081 2.27138 79.0156 1.79881 79.0156C1.32444 79.0156 0.862647 79.2079 0.528432 79.5423C0.19242 79.8763 0.00195312 80.3399 0.00195312 80.8125C0.00195312 81.2851 0.19242 81.7486 0.528432 82.0829C0.862647 82.4171 1.32444 82.6093 1.79881 82.6093C2.27138 82.6093 2.73317 82.4173 3.06919 82.0829C3.4034 81.7486 3.59567 81.2851 3.59567 80.8125C3.59567 80.3397 3.4034 79.8761 3.06919 79.5423Z" fill="white"/>
</svg>
